<svg xmlns="http://www.w3.org/2000/svg" xmlns:xlink="http://www.w3.org/1999/xlink" contentStyleType="text/css" height="940px" preserveAspectRatio="none" style="width:2343px;height:940px;background:#FFFFFF;" version="1.1" viewBox="0 0 2343 940" width="2343px" zoomAndPan="magnify"><defs/><g><!--cluster dp--><g id="cluster_dp"><path d="M8.5,6.602 L27.2239,6.602 A3.75,3.75 0 0 1 29.7239,9.102 L36.7239,31.6699 L2333.5,31.6699 A2.5,2.5 0 0 1 2336,34.1699 L2336,931.102 A2.5,2.5 0 0 1 2333.5,933.602 L8.5,933.602 A2.5,2.5 0 0 1 6,931.102 L6,9.102 A2.5,2.5 0 0 1 8.5,6.602 " fill="none" style="stroke:#000000;stroke-width:1.5;"/><line style="stroke:#000000;stroke-width:1.5;" x1="6" x2="36.7239" y1="31.6699" y2="31.6699"/><text fill="#000000" font-family="sans-serif" font-size="14" font-weight="bold" lengthAdjust="spacing" textLength="17.7239" x="10" y="23.5679">dp</text></g><!--cluster abstract-factory--><g id="cluster_abstract-factory"><path d="M32.5,52.602 L146.5775,52.602 A3.75,3.75 0 0 1 149.0775,55.102 L156.0775,77.6699 L2309.5,77.6699 A2.5,2.5 0 0 1 2312,80.1699 L2312,907.102 A2.5,2.5 0 0 1 2309.5,909.602 L32.5,909.602 A2.5,2.5 0 0 1 30,907.102 L30,55.102 A2.5,2.5 0 0 1 32.5,52.602 " fill="none" style="stroke:#000000;stroke-width:1.5;"/><line style="stroke:#000000;stroke-width:1.5;" x1="30" x2="156.0775" y1="77.6699" y2="77.6699"/><text fill="#000000" font-family="sans-serif" font-size="14" font-weight="bold" lengthAdjust="spacing" textLength="113.0775" x="34" y="69.5679">abstract-factory</text></g><!--class App--><g id="elem_App"><rect codeLine="2" fill="#F1F1F1" height="105.2038" id="App" rx="2.5" ry="2.5" style="stroke:#181818;stroke-width:0.5;" width="317.3389" x="760.5" y="788.602"/><ellipse cx="901.8365" cy="804.602" fill="#ADD1B2" rx="11" ry="11" style="stroke:#181818;stroke-width:1.0;"/><path d="M901.3052,811.5239 Q899.5552,811.5239 898.4146,810.7895 Q897.2896,810.0395 896.7271,808.6957 Q896.1802,807.3364 896.1802,805.5395 Q896.1802,803.5082 896.8365,802.0551 Q897.4927,800.602 898.774,799.8207 Q900.0552,799.0395 901.9302,799.0395 Q902.8209,799.0395 903.4927,799.227 Q904.1646,799.3989 904.8521,799.7426 L904.0396,801.7582 Q903.4146,801.4457 902.8677,801.3207 Q902.3365,801.1957 901.8521,801.1957 Q900.6802,801.1957 899.9771,801.727 Q899.274,802.2582 898.9771,803.2114 Q898.6802,804.1645 898.6802,805.4301 Q898.6802,807.4457 899.399,808.4145 Q900.1177,809.3676 901.7115,809.3676 Q902.3052,809.3676 902.9302,809.2114 Q903.5552,809.0551 904.3834,808.6801 L904.3834,810.8989 Q903.649,811.2114 902.8521,811.3676 Q902.0709,811.5239 901.3052,811.5239 Z " fill="#000000"/><text fill="#000000" font-family="sans-serif" font-size="14" lengthAdjust="spacing" textLength="26.1659" x="922.3365" y="810.034">App</text><line style="stroke:#181818;stroke-width:0.5;" x1="761.5" x2="1076.8389" y1="820.602" y2="820.602"/><rect fill="none" height="6" style="stroke:#C82930;stroke-width:1.0;" width="6" x="768.5" y="832.6359"/><text fill="#000000" font-family="sans-serif" font-size="14" lengthAdjust="spacing" textLength="135.4775" x="780.5" y="839.5679">kingdom_ : Kingdom</text><line style="stroke:#181818;stroke-width:0.5;" x1="761.5" x2="1076.8389" y1="847.6699" y2="847.6699"/><ellipse cx="771.5" cy="862.7039" fill="#84BE84" rx="3" ry="3" style="stroke:#038048;stroke-width:1.0;"/><text fill="#000000" font-family="sans-serif" font-size="14" lengthAdjust="spacing" textLength="31.4859" x="780.5" y="866.6358">run()</text><rect fill="#F24D5C" height="6" style="stroke:#C82930;stroke-width:1.0;" width="6" x="768.5" y="878.7718"/><text fill="#000000" font-family="sans-serif" font-size="14" lengthAdjust="spacing" textLength="291.3389" x="780.5" y="885.7038">setUpKingdom(KingdomType kingdomType)</text></g><!--class FactoryMaker--><g id="elem_FactoryMaker"><rect codeLine="9" fill="#F1F1F1" height="67.0679" id="FactoryMaker" rx="2.5" ry="2.5" style="stroke:#181818;stroke-width:0.5;" width="512.1343" x="663" y="420.602"/><ellipse cx="869.8213" cy="436.602" fill="#ADD1B2" rx="11" ry="11" style="stroke:#181818;stroke-width:1.0;"/><path d="M869.2901,443.5239 Q867.5401,443.5239 866.3994,442.7895 Q865.2744,442.0395 864.7119,440.6957 Q864.1651,439.3364 864.1651,437.5395 Q864.1651,435.5082 864.8213,434.0551 Q865.4776,432.602 866.7588,431.8207 Q868.0401,431.0395 869.9151,431.0395 Q870.8057,431.0395 871.4776,431.227 Q872.1494,431.3989 872.8369,431.7426 L872.0244,433.7582 Q871.3994,433.4457 870.8526,433.3207 Q870.3213,433.1957 869.8369,433.1957 Q868.6651,433.1957 867.9619,433.727 Q867.2588,434.2582 866.9619,435.2114 Q866.6651,436.1645 866.6651,437.4301 Q866.6651,439.4457 867.3838,440.4145 Q868.1026,441.3676 869.6963,441.3676 Q870.2901,441.3676 870.9151,441.2114 Q871.5401,441.0551 872.3682,440.6801 L872.3682,442.8989 Q871.6338,443.2114 870.8369,443.3676 Q870.0557,443.5239 869.2901,443.5239 Z " fill="#000000"/><text fill="#000000" font-family="sans-serif" font-size="14" lengthAdjust="spacing" textLength="89.9917" x="890.3213" y="442.034">FactoryMaker</text><line style="stroke:#181818;stroke-width:0.5;" x1="664" x2="1174.1343" y1="452.602" y2="452.602"/><line style="stroke:#181818;stroke-width:0.5;" x1="664" x2="1174.1343" y1="460.602" y2="460.602"/><ellipse cx="674" cy="475.6359" fill="#84BE84" rx="3" ry="3" style="stroke:#038048;stroke-width:1.0;"/><text fill="#000000" font-family="sans-serif" font-size="14" lengthAdjust="spacing" textLength="486.1343" x="683" y="479.5679">static std::unique_ptr&lt;KingdomFactory&gt; makeFactory(KingdomType type);</text></g><!--class Kingdom--><g id="elem_Kingdom"><rect codeLine="13" fill="#F1F1F1" height="181.4754" id="Kingdom" rx="2.5" ry="2.5" style="stroke:#181818;stroke-width:0.5;" width="736.4552" x="551" y="547.602"/><ellipse cx="885.1227" cy="563.602" fill="#ADD1B2" rx="11" ry="11" style="stroke:#181818;stroke-width:1.0;"/><path d="M884.5915,570.5239 Q882.8415,570.5239 881.7008,569.7895 Q880.5758,569.0395 880.0133,567.6957 Q879.4665,566.3364 879.4665,564.5395 Q879.4665,562.5082 880.1227,561.0551 Q880.779,559.602 882.0602,558.8207 Q883.3415,558.0395 885.2165,558.0395 Q886.1071,558.0395 886.779,558.227 Q887.4508,558.3989 888.1383,558.7426 L887.3258,560.7582 Q886.7008,560.4457 886.154,560.3207 Q885.6227,560.1957 885.1383,560.1957 Q883.9665,560.1957 883.2633,560.727 Q882.5602,561.2582 882.2633,562.2114 Q881.9665,563.1645 881.9665,564.4301 Q881.9665,566.4457 882.6852,567.4145 Q883.404,568.3676 884.9977,568.3676 Q885.5915,568.3676 886.2165,568.2114 Q886.8415,568.0551 887.6696,567.6801 L887.6696,569.8989 Q886.9352,570.2114 886.1383,570.3676 Q885.3571,570.5239 884.5915,570.5239 Z " fill="#000000"/><text fill="#000000" font-family="sans-serif" font-size="14" lengthAdjust="spacing" textLength="59.7098" x="905.6227" y="569.034">Kingdom</text><line style="stroke:#181818;stroke-width:0.5;" x1="552" x2="1286.4552" y1="579.602" y2="579.602"/><rect fill="none" height="6" style="stroke:#C82930;stroke-width:1.0;" width="6" x="559" y="591.6359"/><text fill="#000000" font-family="sans-serif" font-size="14" lengthAdjust="spacing" textLength="201.6972" x="571" y="598.5679">army_ : std::unique_ptr&lt;Army&gt;</text><rect fill="none" height="6" style="stroke:#C82930;stroke-width:1.0;" width="6" x="559" y="610.7039"/><text fill="#000000" font-family="sans-serif" font-size="14" lengthAdjust="spacing" textLength="210.6852" x="571" y="617.6358">castle_ : std::unique_ptr&lt;Castle&gt;</text><rect fill="none" height="6" style="stroke:#C82930;stroke-width:1.0;" width="6" x="559" y="629.7718"/><text fill="#000000" font-family="sans-serif" font-size="14" lengthAdjust="spacing" textLength="190.7632" x="571" y="636.7038">king_ : std::unique_ptr&lt;King&gt;</text><line style="stroke:#181818;stroke-width:0.5;" x1="552" x2="1286.4552" y1="644.8057" y2="644.8057"/><ellipse cx="562" cy="659.8397" fill="#84BE84" rx="3" ry="3" style="stroke:#038048;stroke-width:1.0;"/><text fill="#000000" font-family="sans-serif" font-size="14" lengthAdjust="spacing" textLength="710.4552" x="571" y="663.7717">Kingdom(std::unique_ptr&lt;King&gt;&amp;&amp; king, std::unique_ptr&lt;Castle&gt;&amp;&amp; castle, std::unique_ptr&lt;Army&gt;&amp;&amp; army);</text><ellipse cx="562" cy="678.9076" fill="#84BE84" rx="3" ry="3" style="stroke:#038048;stroke-width:1.0;"/><text fill="#000000" font-family="sans-serif" font-size="14" lengthAdjust="spacing" textLength="110.9076" x="571" y="682.8396">getArmy() : Army</text><ellipse cx="562" cy="697.9755" fill="#84BE84" rx="3" ry="3" style="stroke:#038048;stroke-width:1.0;"/><text fill="#000000" font-family="sans-serif" font-size="14" lengthAdjust="spacing" textLength="120.9315" x="571" y="701.9075">getCastle() : Castle</text><ellipse cx="562" cy="717.0434" fill="#84BE84" rx="3" ry="3" style="stroke:#038048;stroke-width:1.0;"/><text fill="#000000" font-family="sans-serif" font-size="14" lengthAdjust="spacing" textLength="100.0716" x="571" y="720.9754">getKing() : King</text></g><!--class KingdomType--><g id="elem_KingdomType"><rect codeLine="24" fill="#F1F1F1" height="86.1358" id="KingdomType" rx="2.5" ry="2.5" style="stroke:#181818;stroke-width:0.5;" width="123.1396" x="981.5" y="265.102"/><ellipse cx="996.5" cy="281.102" fill="#EB937F" rx="11" ry="11" style="stroke:#181818;stroke-width:1.0;"/><path d="M992.8594,287.602 L992.8594,275.4614 L1000.5156,275.4614 L1000.5156,277.5864 L995.2344,277.5864 L995.2344,280.2426 L1000.25,280.2426 L1000.25,282.3676 L995.2344,282.3676 L995.2344,285.477 L1000.5156,285.477 L1000.5156,287.602 L992.8594,287.602 Z " fill="#000000"/><text fill="#000000" font-family="sans-serif" font-size="14" lengthAdjust="spacing" textLength="91.1396" x="1010.5" y="286.534">KingdomType</text><line style="stroke:#181818;stroke-width:0.5;" x1="982.5" x2="1103.6396" y1="297.102" y2="297.102"/><ellipse cx="992.5" cy="312.1359" fill="none" rx="3" ry="3" style="stroke:#038048;stroke-width:1.0;"/><text fill="#000000" font-family="sans-serif" font-size="14" lengthAdjust="spacing" text-decoration="underline" textLength="16.2119" x="1001.5" y="316.0679">Elf</text><ellipse cx="992.5" cy="331.2039" fill="none" rx="3" ry="3" style="stroke:#038048;stroke-width:1.0;"/><text fill="#000000" font-family="sans-serif" font-size="14" lengthAdjust="spacing" text-decoration="underline" textLength="23.4359" x="1001.5" y="335.1358">Orc</text><line style="stroke:#181818;stroke-width:0.5;" x1="982.5" x2="1103.6396" y1="343.2378" y2="343.2378"/></g><!--class Army--><g id="elem_Army"><rect codeLine="29" fill="#F1F1F1" height="67.0679" id="Army" rx="2.5" ry="2.5" style="stroke:#181818;stroke-width:0.5;" width="203.8553" x="1833" y="807.602"/><ellipse cx="1914.5637" cy="823.602" fill="#B4A7E5" rx="11" ry="11" style="stroke:#181818;stroke-width:1.0;"/><path d="M1910.595,830.102 L1910.595,828.3989 L1912.9544,828.1332 L1912.9544,819.9301 L1910.595,819.6645 L1910.595,817.9614 L1917.7356,817.9614 L1917.7356,819.6645 L1915.3137,819.9301 L1915.3137,828.1332 L1917.7356,828.3989 L1917.7356,830.102 L1910.595,830.102 Z " fill="#000000"/><text fill="#000000" font-family="sans-serif" font-size="14" font-style="italic" lengthAdjust="spacing" textLength="32.2279" x="1935.0637" y="829.034">Army</text><line style="stroke:#181818;stroke-width:0.5;" x1="1834" x2="2035.8553" y1="839.602" y2="839.602"/><line style="stroke:#181818;stroke-width:0.5;" x1="1834" x2="2035.8553" y1="847.602" y2="847.602"/><ellipse cx="1844" cy="862.6359" fill="#84BE84" rx="3" ry="3" style="stroke:#038048;stroke-width:1.0;"/><text fill="#000000" font-family="sans-serif" font-size="14" font-style="italic" lengthAdjust="spacing" textLength="177.8553" x="1853" y="866.5679">getDescription() : string_view</text></g><!--class Castle--><g id="elem_Castle"><rect codeLine="33" fill="#F1F1F1" height="67.0679" id="Castle" rx="2.5" ry="2.5" style="stroke:#181818;stroke-width:0.5;" width="203.8553" x="1329" y="807.602"/><ellipse cx="1407.9457" cy="823.602" fill="#B4A7E5" rx="11" ry="11" style="stroke:#181818;stroke-width:1.0;"/><path d="M1403.977,830.102 L1403.977,828.3989 L1406.3364,828.1332 L1406.3364,819.9301 L1403.977,819.6645 L1403.977,817.9614 L1411.1176,817.9614 L1411.1176,819.6645 L1408.6957,819.9301 L1408.6957,828.1332 L1411.1176,828.3989 L1411.1176,830.102 L1403.977,830.102 Z " fill="#000000"/><text fill="#000000" font-family="sans-serif" font-size="14" font-style="italic" lengthAdjust="spacing" textLength="37.4639" x="1428.4457" y="829.034">Castle</text><line style="stroke:#181818;stroke-width:0.5;" x1="1330" x2="1531.8553" y1="839.602" y2="839.602"/><line style="stroke:#181818;stroke-width:0.5;" x1="1330" x2="1531.8553" y1="847.602" y2="847.602"/><ellipse cx="1340" cy="862.6359" fill="#84BE84" rx="3" ry="3" style="stroke:#038048;stroke-width:1.0;"/><text fill="#000000" font-family="sans-serif" font-size="14" font-style="italic" lengthAdjust="spacing" textLength="177.8553" x="1349" y="866.5679">getDescription() : string_view</text></g><!--class ElfArmy--><g id="elem_ElfArmy"><rect codeLine="37" fill="#F1F1F1" height="86.1358" id="ElfArmy" rx="2.5" ry="2.5" style="stroke:#181818;stroke-width:0.5;" width="216.5813" x="2078.5" y="595.102"/><ellipse cx="2156.9557" cy="611.102" fill="#ADD1B2" rx="11" ry="11" style="stroke:#181818;stroke-width:1.0;"/><path d="M2156.4245,618.0239 Q2154.6745,618.0239 2153.5339,617.2895 Q2152.4089,616.5395 2151.8464,615.1957 Q2151.2995,613.8364 2151.2995,612.0395 Q2151.2995,610.0082 2151.9557,608.5551 Q2152.612,607.102 2153.8932,606.3207 Q2155.1745,605.5395 2157.0495,605.5395 Q2157.9401,605.5395 2158.612,605.727 Q2159.2839,605.8989 2159.9714,606.2426 L2159.1589,608.2582 Q2158.5339,607.9457 2157.987,607.8207 Q2157.4557,607.6957 2156.9714,607.6957 Q2155.7995,607.6957 2155.0964,608.227 Q2154.3932,608.7582 2154.0964,609.7114 Q2153.7995,610.6645 2153.7995,611.9301 Q2153.7995,613.9457 2154.5182,614.9145 Q2155.237,615.8676 2156.8307,615.8676 Q2157.4245,615.8676 2158.0495,615.7114 Q2158.6745,615.5551 2159.5026,615.1801 L2159.5026,617.3989 Q2158.7682,617.7114 2157.9714,617.8676 Q2157.1901,618.0239 2156.4245,618.0239 Z " fill="#000000"/><text fill="#000000" font-family="sans-serif" font-size="14" lengthAdjust="spacing" textLength="51.1698" x="2177.4557" y="616.534">ElfArmy</text><line style="stroke:#181818;stroke-width:0.5;" x1="2079.5" x2="2294.0813" y1="627.102" y2="627.102"/><ellipse cx="2089.5" cy="642.1359" fill="none" rx="3" ry="3" style="stroke:#038048;stroke-width:1.0;"/><text fill="#000000" font-family="sans-serif" font-size="14" lengthAdjust="spacing" text-decoration="underline" textLength="175.8533" x="2098.5" y="646.0679">DESCRIPTION : string_view</text><line style="stroke:#181818;stroke-width:0.5;" x1="2079.5" x2="2294.0813" y1="654.1699" y2="654.1699"/><ellipse cx="2089.5" cy="669.2039" fill="#84BE84" rx="3" ry="3" style="stroke:#038048;stroke-width:1.0;"/><text fill="#000000" font-family="sans-serif" font-size="14" lengthAdjust="spacing" textLength="190.5813" x="2098.5" y="673.1358">getDescription() : string_view</text></g><!--class ElfCastle--><g id="elem_ElfCastle"><rect codeLine="42" fill="#F1F1F1" height="86.1358" id="ElfCastle" rx="2.5" ry="2.5" style="stroke:#181818;stroke-width:0.5;" width="216.5813" x="1574.5" y="595.102"/><ellipse cx="1650.4497" cy="611.102" fill="#ADD1B2" rx="11" ry="11" style="stroke:#181818;stroke-width:1.0;"/><path d="M1649.9185,618.0239 Q1648.1685,618.0239 1647.0279,617.2895 Q1645.9029,616.5395 1645.3404,615.1957 Q1644.7935,613.8364 1644.7935,612.0395 Q1644.7935,610.0082 1645.4497,608.5551 Q1646.106,607.102 1647.3872,606.3207 Q1648.6685,605.5395 1650.5435,605.5395 Q1651.4341,605.5395 1652.106,605.727 Q1652.7779,605.8989 1653.4654,606.2426 L1652.6529,608.2582 Q1652.0279,607.9457 1651.481,607.8207 Q1650.9497,607.6957 1650.4654,607.6957 Q1649.2935,607.6957 1648.5904,608.227 Q1647.8872,608.7582 1647.5904,609.7114 Q1647.2935,610.6645 1647.2935,611.9301 Q1647.2935,613.9457 1648.0122,614.9145 Q1648.731,615.8676 1650.3247,615.8676 Q1650.9185,615.8676 1651.5435,615.7114 Q1652.1685,615.5551 1652.9966,615.1801 L1652.9966,617.3989 Q1652.2622,617.7114 1651.4654,617.8676 Q1650.6841,618.0239 1649.9185,618.0239 Z " fill="#000000"/><text fill="#000000" font-family="sans-serif" font-size="14" lengthAdjust="spacing" textLength="56.1818" x="1670.9497" y="616.534">ElfCastle</text><line style="stroke:#181818;stroke-width:0.5;" x1="1575.5" x2="1790.0813" y1="627.102" y2="627.102"/><ellipse cx="1585.5" cy="642.1359" fill="none" rx="3" ry="3" style="stroke:#038048;stroke-width:1.0;"/><text fill="#000000" font-family="sans-serif" font-size="14" lengthAdjust="spacing" text-decoration="underline" textLength="175.8533" x="1594.5" y="646.0679">DESCRIPTION : string_view</text><line style="stroke:#181818;stroke-width:0.5;" x1="1575.5" x2="1790.0813" y1="654.1699" y2="654.1699"/><ellipse cx="1585.5" cy="669.2039" fill="#84BE84" rx="3" ry="3" style="stroke:#038048;stroke-width:1.0;"/><text fill="#000000" font-family="sans-serif" font-size="14" lengthAdjust="spacing" textLength="190.5813" x="1594.5" y="673.1358">getDescription() : string_view</text></g><!--class ElfKing--><g id="elem_ElfKing"><rect codeLine="47" fill="#F1F1F1" height="86.1358" id="ElfKing" rx="2.5" ry="2.5" style="stroke:#181818;stroke-width:0.5;" width="216.5813" x="298.5" y="595.102"/><ellipse cx="379.6647" cy="611.102" fill="#ADD1B2" rx="11" ry="11" style="stroke:#181818;stroke-width:1.0;"/><path d="M379.1335,618.0239 Q377.3835,618.0239 376.2428,617.2895 Q375.1178,616.5395 374.5553,615.1957 Q374.0085,613.8364 374.0085,612.0395 Q374.0085,610.0082 374.6647,608.5551 Q375.321,607.102 376.6022,606.3207 Q377.8835,605.5395 379.7585,605.5395 Q380.6491,605.5395 381.321,605.727 Q381.9928,605.8989 382.6803,606.2426 L381.8678,608.2582 Q381.2428,607.9457 380.696,607.8207 Q380.1647,607.6957 379.6803,607.6957 Q378.5085,607.6957 377.8053,608.227 Q377.1022,608.7582 376.8053,609.7114 Q376.5085,610.6645 376.5085,611.9301 Q376.5085,613.9457 377.2272,614.9145 Q377.946,615.8676 379.5397,615.8676 Q380.1335,615.8676 380.7585,615.7114 Q381.3835,615.5551 382.2116,615.1801 L382.2116,617.3989 Q381.4772,617.7114 380.6803,617.8676 Q379.8991,618.0239 379.1335,618.0239 Z " fill="#000000"/><text fill="#000000" font-family="sans-serif" font-size="14" lengthAdjust="spacing" textLength="45.7518" x="400.1647" y="616.534">ElfKing</text><line style="stroke:#181818;stroke-width:0.5;" x1="299.5" x2="514.0813" y1="627.102" y2="627.102"/><ellipse cx="309.5" cy="642.1359" fill="none" rx="3" ry="3" style="stroke:#038048;stroke-width:1.0;"/><text fill="#000000" font-family="sans-serif" font-size="14" lengthAdjust="spacing" text-decoration="underline" textLength="175.8533" x="318.5" y="646.0679">DESCRIPTION : string_view</text><line style="stroke:#181818;stroke-width:0.5;" x1="299.5" x2="514.0813" y1="654.1699" y2="654.1699"/><ellipse cx="309.5" cy="669.2039" fill="#84BE84" rx="3" ry="3" style="stroke:#038048;stroke-width:1.0;"/><text fill="#000000" font-family="sans-serif" font-size="14" lengthAdjust="spacing" textLength="190.5813" x="318.5" y="673.1358">getDescription() : string_view</text></g><!--class ElfKingdomFactory--><g id="elem_ElfKingdomFactory"><rect codeLine="52" fill="#F1F1F1" height="105.2038" id="ElfKingdomFactory" rx="2.5" ry="2.5" style="stroke:#181818;stroke-width:0.5;" width="322.1689" x="812" y="90.602"/><ellipse cx="906.7307" cy="106.602" fill="#ADD1B2" rx="11" ry="11" style="stroke:#181818;stroke-width:1.0;"/><path d="M906.1994,113.5239 Q904.4494,113.5239 903.3088,112.7895 Q902.1838,112.0395 901.6213,110.6957 Q901.0744,109.3364 901.0744,107.5395 Q901.0744,105.5082 901.7307,104.0551 Q902.3869,102.602 903.6682,101.8207 Q904.9494,101.0395 906.8244,101.0395 Q907.715,101.0395 908.3869,101.227 Q909.0588,101.3989 909.7463,101.7426 L908.9338,103.7582 Q908.3088,103.4457 907.7619,103.3207 Q907.2307,103.1957 906.7463,103.1957 Q905.5744,103.1957 904.8713,103.727 Q904.1682,104.2582 903.8713,105.2114 Q903.5744,106.1645 903.5744,107.4301 Q903.5744,109.4457 904.2932,110.4145 Q905.0119,111.3676 906.6057,111.3676 Q907.1994,111.3676 907.8244,111.2114 Q908.4494,111.0551 909.2775,110.6801 L909.2775,112.8989 Q908.5432,113.2114 907.7463,113.3676 Q906.965,113.5239 906.1994,113.5239 Z " fill="#000000"/><text fill="#000000" font-family="sans-serif" font-size="14" lengthAdjust="spacing" textLength="124.2075" x="927.2307" y="112.034">ElfKingdomFactory</text><line style="stroke:#181818;stroke-width:0.5;" x1="813" x2="1133.1689" y1="122.602" y2="122.602"/><line style="stroke:#181818;stroke-width:0.5;" x1="813" x2="1133.1689" y1="130.602" y2="130.602"/><ellipse cx="823" cy="145.6359" fill="#84BE84" rx="3" ry="3" style="stroke:#038048;stroke-width:1.0;"/><text fill="#000000" font-family="sans-serif" font-size="14" lengthAdjust="spacing" textLength="281.1329" x="832" y="149.5679">std::unique_ptr&lt;Army&gt; createArmy(): Army</text><ellipse cx="823" cy="164.7039" fill="#84BE84" rx="3" ry="3" style="stroke:#038048;stroke-width:1.0;"/><text fill="#000000" font-family="sans-serif" font-size="14" lengthAdjust="spacing" textLength="296.1689" x="832" y="168.6358">std::unique_ptr&lt;Castle&gt; createCastle(): Castle</text><ellipse cx="823" cy="183.7718" fill="#84BE84" rx="3" ry="3" style="stroke:#038048;stroke-width:1.0;"/><text fill="#000000" font-family="sans-serif" font-size="14" lengthAdjust="spacing" textLength="264.879" x="832" y="187.7038">std::unique_ptr&lt;King&gt; createKing(): King</text></g><!--class King--><g id="elem_King"><rect codeLine="58" fill="#F1F1F1" height="67.0679" id="King" rx="2.5" ry="2.5" style="stroke:#181818;stroke-width:0.5;" width="203.8553" x="305" y="807.602"/><ellipse cx="388.8317" cy="823.602" fill="#B4A7E5" rx="11" ry="11" style="stroke:#181818;stroke-width:1.0;"/><path d="M384.863,830.102 L384.863,828.3989 L387.2223,828.1332 L387.2223,819.9301 L384.863,819.6645 L384.863,817.9614 L392.0036,817.9614 L392.0036,819.6645 L389.5817,819.9301 L389.5817,828.1332 L392.0036,828.3989 L392.0036,830.102 L384.863,830.102 Z " fill="#000000"/><text fill="#000000" font-family="sans-serif" font-size="14" font-style="italic" lengthAdjust="spacing" textLength="27.6919" x="409.3317" y="829.034">King</text><line style="stroke:#181818;stroke-width:0.5;" x1="306" x2="507.8553" y1="839.602" y2="839.602"/><line style="stroke:#181818;stroke-width:0.5;" x1="306" x2="507.8553" y1="847.602" y2="847.602"/><ellipse cx="316" cy="862.6359" fill="#84BE84" rx="3" ry="3" style="stroke:#038048;stroke-width:1.0;"/><text fill="#000000" font-family="sans-serif" font-size="14" font-style="italic" lengthAdjust="spacing" textLength="177.8553" x="325" y="866.5679">getDescription() : string_view</text></g><!--class KingdomFactory--><g id="elem_KingdomFactory"><rect codeLine="62" fill="#F1F1F1" height="105.2038" id="KingdomFactory" rx="2.5" ry="2.5" style="stroke:#181818;stroke-width:0.5;" width="304.7249" x="641.5" y="255.602"/><ellipse cx="738.8416" cy="271.602" fill="#B4A7E5" rx="11" ry="11" style="stroke:#181818;stroke-width:1.0;"/><path d="M734.8729,278.102 L734.8729,276.3989 L737.2323,276.1332 L737.2323,267.9301 L734.8729,267.6645 L734.8729,265.9614 L742.0135,265.9614 L742.0135,267.6645 L739.5916,267.9301 L739.5916,276.1332 L742.0135,276.3989 L742.0135,278.102 L734.8729,278.102 Z " fill="#000000"/><text fill="#000000" font-family="sans-serif" font-size="14" font-style="italic" lengthAdjust="spacing" textLength="101.5416" x="759.3416" y="277.034">KingdomFactory</text><line style="stroke:#181818;stroke-width:0.5;" x1="642.5" x2="945.2249" y1="287.602" y2="287.602"/><line style="stroke:#181818;stroke-width:0.5;" x1="642.5" x2="945.2249" y1="295.602" y2="295.602"/><ellipse cx="652.5" cy="310.6359" fill="#84BE84" rx="3" ry="3" style="stroke:#038048;stroke-width:1.0;"/><text fill="#000000" font-family="sans-serif" font-size="14" font-style="italic" lengthAdjust="spacing" textLength="263.017" x="661.5" y="314.5679">std::unique_ptr&lt;Army&gt; createArmy(): Army</text><ellipse cx="652.5" cy="329.7039" fill="#84BE84" rx="3" ry="3" style="stroke:#038048;stroke-width:1.0;"/><text fill="#000000" font-family="sans-serif" font-size="14" font-style="italic" lengthAdjust="spacing" textLength="278.7249" x="661.5" y="333.6358">std::unique_ptr&lt;Castle&gt; createCastle(): Castle</text><ellipse cx="652.5" cy="348.7718" fill="#84BE84" rx="3" ry="3" style="stroke:#038048;stroke-width:1.0;"/><text fill="#000000" font-family="sans-serif" font-size="14" font-style="italic" lengthAdjust="spacing" textLength="249.409" x="661.5" y="352.7038">std::unique_ptr&lt;King&gt; createKing(): King</text></g><!--class OrcArmy--><g id="elem_OrcArmy"><rect codeLine="68" fill="#F1F1F1" height="86.1358" id="OrcArmy" rx="2.5" ry="2.5" style="stroke:#181818;stroke-width:0.5;" width="216.5813" x="1826.5" y="595.102"/><ellipse cx="1901.3437" cy="611.102" fill="#ADD1B2" rx="11" ry="11" style="stroke:#181818;stroke-width:1.0;"/><path d="M1900.8125,618.0239 Q1899.0625,618.0239 1897.9219,617.2895 Q1896.7969,616.5395 1896.2344,615.1957 Q1895.6875,613.8364 1895.6875,612.0395 Q1895.6875,610.0082 1896.3437,608.5551 Q1897,607.102 1898.2812,606.3207 Q1899.5625,605.5395 1901.4375,605.5395 Q1902.3281,605.5395 1903,605.727 Q1903.6719,605.8989 1904.3594,606.2426 L1903.5469,608.2582 Q1902.9219,607.9457 1902.375,607.8207 Q1901.8437,607.6957 1901.3594,607.6957 Q1900.1875,607.6957 1899.4844,608.227 Q1898.7812,608.7582 1898.4844,609.7114 Q1898.1875,610.6645 1898.1875,611.9301 Q1898.1875,613.9457 1898.9062,614.9145 Q1899.625,615.8676 1901.2187,615.8676 Q1901.8125,615.8676 1902.4375,615.7114 Q1903.0625,615.5551 1903.8906,615.1801 L1903.8906,617.3989 Q1903.1562,617.7114 1902.3594,617.8676 Q1901.5781,618.0239 1900.8125,618.0239 Z " fill="#000000"/><text fill="#000000" font-family="sans-serif" font-size="14" lengthAdjust="spacing" textLength="58.3938" x="1921.8437" y="616.534">OrcArmy</text><line style="stroke:#181818;stroke-width:0.5;" x1="1827.5" x2="2042.0813" y1="627.102" y2="627.102"/><ellipse cx="1837.5" cy="642.1359" fill="none" rx="3" ry="3" style="stroke:#038048;stroke-width:1.0;"/><text fill="#000000" font-family="sans-serif" font-size="14" lengthAdjust="spacing" text-decoration="underline" textLength="175.8533" x="1846.5" y="646.0679">DESCRIPTION : string_view</text><line style="stroke:#181818;stroke-width:0.5;" x1="1827.5" x2="2042.0813" y1="654.1699" y2="654.1699"/><ellipse cx="1837.5" cy="669.2039" fill="#84BE84" rx="3" ry="3" style="stroke:#038048;stroke-width:1.0;"/><text fill="#000000" font-family="sans-serif" font-size="14" lengthAdjust="spacing" textLength="190.5813" x="1846.5" y="673.1358">getDescription() : string_view</text></g><!--class OrcCastle--><g id="elem_OrcCastle"><rect codeLine="73" fill="#F1F1F1" height="86.1358" id="OrcCastle" rx="2.5" ry="2.5" style="stroke:#181818;stroke-width:0.5;" width="216.5813" x="1322.5" y="595.102"/><ellipse cx="1394.8377" cy="611.102" fill="#ADD1B2" rx="11" ry="11" style="stroke:#181818;stroke-width:1.0;"/><path d="M1394.3065,618.0239 Q1392.5565,618.0239 1391.4159,617.2895 Q1390.2909,616.5395 1389.7284,615.1957 Q1389.1815,613.8364 1389.1815,612.0395 Q1389.1815,610.0082 1389.8377,608.5551 Q1390.494,607.102 1391.7752,606.3207 Q1393.0565,605.5395 1394.9315,605.5395 Q1395.8221,605.5395 1396.494,605.727 Q1397.1659,605.8989 1397.8534,606.2426 L1397.0409,608.2582 Q1396.4159,607.9457 1395.869,607.8207 Q1395.3377,607.6957 1394.8534,607.6957 Q1393.6815,607.6957 1392.9784,608.227 Q1392.2752,608.7582 1391.9784,609.7114 Q1391.6815,610.6645 1391.6815,611.9301 Q1391.6815,613.9457 1392.4002,614.9145 Q1393.119,615.8676 1394.7127,615.8676 Q1395.3065,615.8676 1395.9315,615.7114 Q1396.5565,615.5551 1397.3846,615.1801 L1397.3846,617.3989 Q1396.6502,617.7114 1395.8534,617.8676 Q1395.0721,618.0239 1394.3065,618.0239 Z " fill="#000000"/><text fill="#000000" font-family="sans-serif" font-size="14" lengthAdjust="spacing" textLength="63.4058" x="1415.3377" y="616.534">OrcCastle</text><line style="stroke:#181818;stroke-width:0.5;" x1="1323.5" x2="1538.0813" y1="627.102" y2="627.102"/><ellipse cx="1333.5" cy="642.1359" fill="none" rx="3" ry="3" style="stroke:#038048;stroke-width:1.0;"/><text fill="#000000" font-family="sans-serif" font-size="14" lengthAdjust="spacing" text-decoration="underline" textLength="175.8533" x="1342.5" y="646.0679">DESCRIPTION : string_view</text><line style="stroke:#181818;stroke-width:0.5;" x1="1323.5" x2="1538.0813" y1="654.1699" y2="654.1699"/><ellipse cx="1333.5" cy="669.2039" fill="#84BE84" rx="3" ry="3" style="stroke:#038048;stroke-width:1.0;"/><text fill="#000000" font-family="sans-serif" font-size="14" lengthAdjust="spacing" textLength="190.5813" x="1342.5" y="673.1358">getDescription() : string_view</text></g><!--class OrcKing--><g id="elem_OrcKing"><rect codeLine="78" fill="#F1F1F1" height="86.1358" id="OrcKing" rx="2.5" ry="2.5" style="stroke:#181818;stroke-width:0.5;" width="216.5813" x="46.5" y="595.102"/><ellipse cx="124.0527" cy="611.102" fill="#ADD1B2" rx="11" ry="11" style="stroke:#181818;stroke-width:1.0;"/><path d="M123.5215,618.0239 Q121.7715,618.0239 120.6309,617.2895 Q119.5059,616.5395 118.9434,615.1957 Q118.3965,613.8364 118.3965,612.0395 Q118.3965,610.0082 119.0527,608.5551 Q119.709,607.102 120.9902,606.3207 Q122.2715,605.5395 124.1465,605.5395 Q125.0371,605.5395 125.709,605.727 Q126.3809,605.8989 127.0684,606.2426 L126.2559,608.2582 Q125.6309,607.9457 125.084,607.8207 Q124.5527,607.6957 124.0684,607.6957 Q122.8965,607.6957 122.1934,608.227 Q121.4902,608.7582 121.1934,609.7114 Q120.8965,610.6645 120.8965,611.9301 Q120.8965,613.9457 121.6152,614.9145 Q122.334,615.8676 123.9277,615.8676 Q124.5215,615.8676 125.1465,615.7114 Q125.7715,615.5551 126.5996,615.1801 L126.5996,617.3989 Q125.8652,617.7114 125.0684,617.8676 Q124.2871,618.0239 123.5215,618.0239 Z " fill="#000000"/><text fill="#000000" font-family="sans-serif" font-size="14" lengthAdjust="spacing" textLength="52.9758" x="144.5527" y="616.534">OrcKing</text><line style="stroke:#181818;stroke-width:0.5;" x1="47.5" x2="262.0813" y1="627.102" y2="627.102"/><ellipse cx="57.5" cy="642.1359" fill="none" rx="3" ry="3" style="stroke:#038048;stroke-width:1.0;"/><text fill="#000000" font-family="sans-serif" font-size="14" lengthAdjust="spacing" text-decoration="underline" textLength="175.8533" x="66.5" y="646.0679">DESCRIPTION : string_view</text><line style="stroke:#181818;stroke-width:0.5;" x1="47.5" x2="262.0813" y1="654.1699" y2="654.1699"/><ellipse cx="57.5" cy="669.2039" fill="#84BE84" rx="3" ry="3" style="stroke:#038048;stroke-width:1.0;"/><text fill="#000000" font-family="sans-serif" font-size="14" lengthAdjust="spacing" textLength="190.5813" x="66.5" y="673.1358">getDescription() : string_view</text></g><!--class OrcKingdomFactory--><g id="elem_OrcKingdomFactory"><rect codeLine="82" fill="#F1F1F1" height="105.2038" id="OrcKingdomFactory" rx="2.5" ry="2.5" style="stroke:#181818;stroke-width:0.5;" width="322.1689" x="455" y="90.602"/><ellipse cx="546.1187" cy="106.602" fill="#ADD1B2" rx="11" ry="11" style="stroke:#181818;stroke-width:1.0;"/><path d="M545.5874,113.5239 Q543.8374,113.5239 542.6968,112.7895 Q541.5718,112.0395 541.0093,110.6957 Q540.4624,109.3364 540.4624,107.5395 Q540.4624,105.5082 541.1187,104.0551 Q541.7749,102.602 543.0562,101.8207 Q544.3374,101.0395 546.2124,101.0395 Q547.103,101.0395 547.7749,101.227 Q548.4468,101.3989 549.1343,101.7426 L548.3218,103.7582 Q547.6968,103.4457 547.1499,103.3207 Q546.6187,103.1957 546.1343,103.1957 Q544.9624,103.1957 544.2593,103.727 Q543.5562,104.2582 543.2593,105.2114 Q542.9624,106.1645 542.9624,107.4301 Q542.9624,109.4457 543.6812,110.4145 Q544.3999,111.3676 545.9937,111.3676 Q546.5874,111.3676 547.2124,111.2114 Q547.8374,111.0551 548.6655,110.6801 L548.6655,112.8989 Q547.9312,113.2114 547.1343,113.3676 Q546.353,113.5239 545.5874,113.5239 Z " fill="#000000"/><text fill="#000000" font-family="sans-serif" font-size="14" lengthAdjust="spacing" textLength="131.4315" x="566.6187" y="112.034">OrcKingdomFactory</text><line style="stroke:#181818;stroke-width:0.5;" x1="456" x2="776.1689" y1="122.602" y2="122.602"/><line style="stroke:#181818;stroke-width:0.5;" x1="456" x2="776.1689" y1="130.602" y2="130.602"/><ellipse cx="466" cy="145.6359" fill="#84BE84" rx="3" ry="3" style="stroke:#038048;stroke-width:1.0;"/><text fill="#000000" font-family="sans-serif" font-size="14" lengthAdjust="spacing" textLength="281.1329" x="475" y="149.5679">std::unique_ptr&lt;Army&gt; createArmy(): Army</text><ellipse cx="466" cy="164.7039" fill="#84BE84" rx="3" ry="3" style="stroke:#038048;stroke-width:1.0;"/><text fill="#000000" font-family="sans-serif" font-size="14" lengthAdjust="spacing" textLength="296.1689" x="475" y="168.6358">std::unique_ptr&lt;Castle&gt; createCastle(): Castle</text><ellipse cx="466" cy="183.7718" fill="#84BE84" rx="3" ry="3" style="stroke:#038048;stroke-width:1.0;"/><text fill="#000000" font-family="sans-serif" font-size="14" lengthAdjust="spacing" textLength="264.879" x="475" y="187.7038">std::unique_ptr&lt;King&gt; createKing(): King</text></g><!--reverse link KingdomType to FactoryMaker--><g id="link_KingdomType_FactoryMaker"><path codeLine="89" d="M1002.8853,355.6889 C983.8753,377.7689 964.83,399.882 947.16,420.402 " fill="none" id="KingdomType-backto-FactoryMaker" style="stroke:#181818;stroke-width:1.0;stroke-dasharray:7.0,7.0;"/><polygon fill="#181818" points="1006.8,351.142,997.8966,355.3526,1003.5377,354.9311,1003.9592,360.5722,1006.8,351.142" style="stroke:#181818;stroke-width:1.0;"/></g><!--reverse link Kingdom to Castle--><g id="link_Kingdom_Castle"><path codeLine="90" d="M1158.47,733.1073 C1230.07,761.2173 1293.42,786.092 1348.11,807.562 " fill="none" id="Kingdom-backto-Castle" style="stroke:#181818;stroke-width:1.0;"/><polygon fill="#181818" points="1147.3,728.722,1151.4232,734.638,1158.47,733.1073,1154.3468,727.1913,1147.3,728.722" style="stroke:#181818;stroke-width:1.0;"/></g><!--reverse link FactoryMaker to Kingdom--><g id="link_FactoryMaker_Kingdom"><path codeLine="91" d="M919,493.642 C919,510.512 919,526.032 919,547.452 " fill="none" id="FactoryMaker-backto-Kingdom" style="stroke:#181818;stroke-width:1.0;stroke-dasharray:7.0,7.0;"/><polygon fill="#181818" points="919,487.642,915,496.642,919,492.642,923,496.642,919,487.642" style="stroke:#181818;stroke-width:1.0;"/></g><!--reverse link KingdomFactory to FactoryMaker--><g id="link_KingdomFactory_FactoryMaker"><path codeLine="92" d="M842.7044,365.212 C859.9444,385.062 875.2,402.642 890.49,420.262 " fill="none" id="KingdomFactory-backto-FactoryMaker" style="stroke:#181818;stroke-width:1.0;stroke-dasharray:7.0,7.0;"/><polygon fill="#181818" points="838.77,360.682,841.6515,370.0999,842.0486,364.457,847.6915,364.8541,838.77,360.682" style="stroke:#181818;stroke-width:1.0;"/></g><!--link Kingdom to App--><g id="link_Kingdom_App"><path codeLine="93" d="M919,728.722 C919,749.142 919,758.162 919,776.362 " fill="none" id="Kingdom-to-App" style="stroke:#181818;stroke-width:1.0;stroke-dasharray:7.0,7.0;"/><polygon fill="#181818" points="919,788.362,923,782.362,919,776.362,915,782.362,919,788.362" style="stroke:#181818;stroke-width:1.0;"/></g><!--reverse link Kingdom to King--><g id="link_Kingdom_King"><path codeLine="94" d="M679.53,733.1073 C607.93,761.2173 544.58,786.092 489.89,807.562 " fill="none" id="Kingdom-backto-King" style="stroke:#181818;stroke-width:1.0;"/><polygon fill="#181818" points="690.7,728.722,683.6532,727.1913,679.53,733.1073,686.5768,734.638,690.7,728.722" style="stroke:#181818;stroke-width:1.0;"/></g><!--reverse link Kingdom to Army--><g id="link_Kingdom_Army"><path codeLine="95" d="M1298.9169,727.3733 C1304.9069,728.6233 1299.1,727.402 1305,728.602 C1490.41,766.482 1708.08,803.322 1832.94,823.732 " fill="none" id="Kingdom-backto-Army" style="stroke:#181818;stroke-width:1.0;"/><polygon fill="#181818" points="1287.17,724.922,1292.2264,730.0633,1298.9169,727.3733,1293.8606,722.232,1287.17,724.922" style="stroke:#181818;stroke-width:1.0;"/></g><!--link ElfArmy to Army--><g id="link_ElfArmy_Army"><path codeLine="96" d="M2134.17,681.242 C2087.12,718.762 2033.3128,761.689 1990.2028,796.069 " fill="none" id="ElfArmy-to-Army" style="stroke:#181818;stroke-width:1.0;stroke-dasharray:7.0,7.0;"/><polygon fill="none" points="1976.13,807.292,1993.9438,800.7599,1986.4618,791.378,1976.13,807.292" style="stroke:#181818;stroke-width:1.0;"/></g><!--link ElfCastle to Castle--><g id="link_ElfCastle_Castle"><path codeLine="97" d="M1630.17,681.242 C1583.12,718.762 1529.3128,761.689 1486.2028,796.069 " fill="none" id="ElfCastle-to-Castle" style="stroke:#181818;stroke-width:1.0;stroke-dasharray:7.0,7.0;"/><polygon fill="none" points="1472.13,807.292,1489.9438,800.7599,1482.4618,791.378,1472.13,807.292" style="stroke:#181818;stroke-width:1.0;"/></g><!--link ElfKing to King--><g id="link_ElfKing_King"><path codeLine="98" d="M407,681.242 C407,718.762 407,754.912 407,789.292 " fill="none" id="ElfKing-to-King" style="stroke:#181818;stroke-width:1.0;stroke-dasharray:7.0,7.0;"/><polygon fill="none" points="407,807.292,413,789.292,401,789.292,407,807.292" style="stroke:#181818;stroke-width:1.0;"/></g><!--link ElfKingdomFactory to KingdomFactory--><g id="link_ElfKingdomFactory_KingdomFactory"><path codeLine="99" d="M916.36,195.672 C895.37,214.792 884.88,224.3541 863.89,243.4641 " fill="none" id="ElfKingdomFactory-to-KingdomFactory" style="stroke:#181818;stroke-width:1.0;stroke-dasharray:7.0,7.0;"/><polygon fill="none" points="850.58,255.582,867.9293,247.9008,859.8507,239.0274,850.58,255.582" style="stroke:#181818;stroke-width:1.0;"/></g><!--link OrcArmy to Army--><g id="link_OrcArmy_Army"><path codeLine="100" d="M1935,681.242 C1935,718.762 1935,754.912 1935,789.292 " fill="none" id="OrcArmy-to-Army" style="stroke:#181818;stroke-width:1.0;stroke-dasharray:7.0,7.0;"/><polygon fill="none" points="1935,807.292,1941,789.292,1929,789.292,1935,807.292" style="stroke:#181818;stroke-width:1.0;"/></g><!--link OrcCastle to Castle--><g id="link_OrcCastle_Castle"><path codeLine="101" d="M1431,681.242 C1431,718.762 1431,754.912 1431,789.292 " fill="none" id="OrcCastle-to-Castle" style="stroke:#181818;stroke-width:1.0;stroke-dasharray:7.0,7.0;"/><polygon fill="none" points="1431,807.292,1437,789.292,1425,789.292,1431,807.292" style="stroke:#181818;stroke-width:1.0;"/></g><!--link OrcKing to King--><g id="link_OrcKing_King"><path codeLine="102" d="M207.83,681.242 C254.88,718.762 308.6872,761.689 351.7972,796.069 " fill="none" id="OrcKing-to-King" style="stroke:#181818;stroke-width:1.0;stroke-dasharray:7.0,7.0;"/><polygon fill="none" points="365.87,807.292,355.5382,791.378,348.0562,800.7599,365.87,807.292" style="stroke:#181818;stroke-width:1.0;"/></g><!--link OrcKingdomFactory to KingdomFactory--><g id="link_OrcKingdomFactory_KingdomFactory"><path codeLine="103" d="M672.32,195.672 C693.2,214.792 703.5946,224.3161 724.4646,243.4261 " fill="none" id="OrcKingdomFactory-to-KingdomFactory" style="stroke:#181818;stroke-width:1.0;stroke-dasharray:7.0,7.0;"/><polygon fill="none" points="737.74,255.582,728.5166,239.001,720.4127,247.8513,737.74,255.582" style="stroke:#181818;stroke-width:1.0;"/></g><!--SRC=[rLRRRi8m37tdA_o4kBKVm50b14n2qyQqiMUKXO0gQEdIT1DY_FjoRPkIRjeGI7kXgHsVOpl7AGd26xGci4nyz9eoYZ3pLlndH_TmQ03WBKfJ62Q9V0FmO1F6w-KkMa0VxjIo8JrTe5dSQkjTAM4lYVQtz7E-JuW95sknzzZ8IMuLxJtQ4AhPkf0on4BC7yj-Ful3jumi4aO76b67113n8FrYiJ51SsFpQ7zU4ABHNbHJvHXoUw3tO9IoBN7j6abFK6gEQvVW34oVJ5kScvfD2TAh8-9-bKpFdJ3tYu9aqO9iJPYmjzeyAx4ep0fGEjIoS8bCf4CiJFT8d4LGRguveybs1GTrK4Tjcb5SDiduC6Q4ScqHcKSUpUd69CKqJ5YuYoKhrw7eutj8Fk1WPEd0KMd_7KdfWQTl9JIUF8-Ufe_pwUoXYc0N-JtV2KabsqlHY1Ew2aanVwLfTIWIC2M84QL2IuGr4jS1HfyLUJgdHeSetTgoBUHYTUOCsPrPl8tz-pxy75_NajeHuEDw-H7W9DSO0KvpiH6eSFo72U2TAT_P0z-tFhJ62HtFCopMXrW4cEzyfUPQBD_lYByC5hPCg6oGNJ1th-z_1hb5gqJQT4hcNfCs2NLw2UM-mjOmmYxm2nMMyOre2lpJ8tRWVm40]--></g></svg>