<svg xmlns="http://www.w3.org/2000/svg" xmlns:xlink="http://www.w3.org/1999/xlink" contentStyleType="text/css"
     data-diagram-type="CLASS" height="612px" preserveAspectRatio="none"
     style="width:293px;height:612px;background:#FFFFFF;" version="1.1" viewBox="0 0 293 612" width="293px"
     zoomAndPan="magnify">
    <title>Adapter Pattern</title>
    <defs/>
    <g>
        <g class="title" data-source-line="1">
            <text fill="#000000" font-family="sans-serif" font-size="14" font-weight="bold" lengthAdjust="spacing"
                  textLength="113.4135" x="82.7932" y="24.9659">Adapter Pattern
            </text>
        </g><!--cluster dp-->
        <g class="cluster" data-entity="dp" data-source-line="3" data-uid="ent0002" id="cluster_dp">
            <path d="M8.5,46.6699 L27.2239,46.6699 A3.75,3.75 0 0 1 29.7239,49.1699 L36.7239,71.7378 L283.5,71.7378 A2.5,2.5 0 0 1 286,74.2378 L286,603.1699 A2.5,2.5 0 0 1 283.5,605.6699 L8.5,605.6699 A2.5,2.5 0 0 1 6,603.1699 L6,49.1699 A2.5,2.5 0 0 1 8.5,46.6699"
                  fill="none" style="stroke:#000000;stroke-width:1.5;"/>
            <line style="stroke:#000000;stroke-width:1.5;" x1="6" x2="36.7239" y1="71.7378" y2="71.7378"/>
            <text fill="#000000" font-family="sans-serif" font-size="14" font-weight="bold" lengthAdjust="spacing"
                  textLength="17.7239" x="10" y="63.6358">dp
            </text>
        </g><!--class RowingBoat-->
        <g class="entity" data-entity="RowingBoat" data-source-line="5" data-uid="ent0003" id="entity_RowingBoat">
            <rect fill="#F1F1F1" height="67.0679" rx="2.5" ry="2.5" style="stroke:#181818;stroke-width:0.5;"
                  width="106.7317" x="92.5" y="249.6699"/>
            <ellipse cx="107.5" cy="265.6699" fill="#B4A7E5" rx="11" ry="11" style="stroke:#181818;stroke-width:1;"/>
            <path d="M103.5313,272.1699 L103.5313,270.4668 L105.8906,270.2011 L105.8906,261.998 L103.5313,261.7324 L103.5313,260.0293 L110.6719,260.0293 L110.6719,261.7324 L108.25,261.998 L108.25,270.2011 L110.6719,270.4668 L110.6719,272.1699 L103.5313,272.1699 Z "
                  fill="#000000"/>
            <text fill="#000000" font-family="sans-serif" font-size="14" font-style="italic" lengthAdjust="spacing"
                  textLength="74.7317" x="121.5" y="271.1019">RowingBoat
            </text>
            <line style="stroke:#181818;stroke-width:0.5;" x1="93.5" x2="198.2317" y1="281.6699" y2="281.6699"/>
            <line style="stroke:#181818;stroke-width:0.5;" x1="93.5" x2="198.2317" y1="289.6699" y2="289.6699"/>
            <ellipse cx="103.5" cy="304.7039" fill="#84BE84" rx="3" ry="3" style="stroke:#038048;stroke-width:1;"/>
            <text fill="#000000" font-family="sans-serif" font-size="14" lengthAdjust="spacing" textLength="68.8517"
                  x="112.5" y="308.6358">row(): void
            </text>
        </g><!--class FishingBoat-->
        <g class="entity" data-entity="FishingBoat" data-source-line="9" data-uid="ent0004" id="entity_FishingBoat">
            <rect fill="#F1F1F1" height="67.0679" rx="2.5" ry="2.5" style="stroke:#181818;stroke-width:0.5;"
                  width="109.5877" x="91" y="522.6699"/>
            <ellipse cx="106" cy="538.6699" fill="#ADD1B2" rx="11" ry="11" style="stroke:#181818;stroke-width:1;"/>
            <path d="M105.4688,545.5918 Q103.7188,545.5918 102.5781,544.8574 Q101.4531,544.1074 100.8906,542.7636 Q100.3438,541.4043 100.3438,539.6074 Q100.3438,537.5761 101,536.123 Q101.6563,534.6699 102.9375,533.8886 Q104.2188,533.1074 106.0938,533.1074 Q106.9844,533.1074 107.6563,533.2949 Q108.3281,533.4668 109.0156,533.8105 L108.2031,535.8261 Q107.5781,535.5136 107.0313,535.3886 Q106.5,535.2636 106.0156,535.2636 Q104.8438,535.2636 104.1406,535.7949 Q103.4375,536.3261 103.1406,537.2793 Q102.8438,538.2324 102.8438,539.498 Q102.8438,541.5136 103.5625,542.4824 Q104.2813,543.4355 105.875,543.4355 Q106.4688,543.4355 107.0938,543.2793 Q107.7188,543.123 108.5469,542.748 L108.5469,544.9668 Q107.8125,545.2793 107.0156,545.4355 Q106.2344,545.5918 105.4688,545.5918 Z "
                  fill="#000000"/>
            <text fill="#000000" font-family="sans-serif" font-size="14" lengthAdjust="spacing" textLength="77.5877"
                  x="120" y="544.1019">FishingBoat
            </text>
            <line style="stroke:#181818;stroke-width:0.5;" x1="92" x2="199.5877" y1="554.6699" y2="554.6699"/>
            <line style="stroke:#181818;stroke-width:0.5;" x1="92" x2="199.5877" y1="562.6699" y2="562.6699"/>
            <ellipse cx="102" cy="577.7039" fill="#84BE84" rx="3" ry="3" style="stroke:#038048;stroke-width:1;"/>
            <text fill="#000000" font-family="sans-serif" font-size="14" lengthAdjust="spacing" textLength="65.3797"
                  x="111" y="581.6358">sail(): void
            </text>
        </g><!--class FishingBoatAdapter-->
        <g class="entity" data-entity="FishingBoatAdapter" data-source-line="13" data-uid="ent0005"
           id="entity_FishingBoatAdapter">
            <rect fill="#F1F1F1" height="86.1358" rx="2.5" ry="2.5" style="stroke:#181818;stroke-width:0.5;"
                  width="162.3395" x="65" y="376.6699"/>
            <ellipse cx="80" cy="392.6699" fill="#ADD1B2" rx="11" ry="11" style="stroke:#181818;stroke-width:1;"/>
            <path d="M79.4688,399.5918 Q77.7188,399.5918 76.5781,398.8574 Q75.4531,398.1074 74.8906,396.7636 Q74.3438,395.4043 74.3438,393.6074 Q74.3438,391.5761 75,390.123 Q75.6563,388.6699 76.9375,387.8886 Q78.2188,387.1074 80.0938,387.1074 Q80.9844,387.1074 81.6563,387.2949 Q82.3281,387.4668 83.0156,387.8105 L82.2031,389.8261 Q81.5781,389.5136 81.0313,389.3886 Q80.5,389.2636 80.0156,389.2636 Q78.8438,389.2636 78.1406,389.7949 Q77.4375,390.3261 77.1406,391.2793 Q76.8438,392.2324 76.8438,393.498 Q76.8438,395.5136 77.5625,396.4824 Q78.2813,397.4355 79.875,397.4355 Q80.4688,397.4355 81.0938,397.2793 Q81.7188,397.123 82.5469,396.748 L82.5469,398.9668 Q81.8125,399.2793 81.0156,399.4355 Q80.2344,399.5918 79.4688,399.5918 Z "
                  fill="#000000"/>
            <text fill="#000000" font-family="sans-serif" font-size="14" lengthAdjust="spacing" textLength="130.3395"
                  x="94" y="398.1019">FishingBoatAdapter
            </text>
            <line style="stroke:#181818;stroke-width:0.5;" x1="66" x2="226.3395" y1="408.6699" y2="408.6699"/>
            <rect fill="none" height="6" style="stroke:#C82930;stroke-width:1;" width="6" x="73" y="420.7039"/>
            <text fill="#000000" font-family="sans-serif" font-size="14" lengthAdjust="spacing" textLength="121.1835"
                  x="85" y="427.6358">boat_: FishingBoat
            </text>
            <line style="stroke:#181818;stroke-width:0.5;" x1="66" x2="226.3395" y1="435.7378" y2="435.7378"/>
            <ellipse cx="76" cy="450.7718" fill="#84BE84" rx="3" ry="3" style="stroke:#038048;stroke-width:1;"/>
            <text fill="#000000" font-family="sans-serif" font-size="14" lengthAdjust="spacing" textLength="68.8517"
                  x="85" y="454.7038">row(): void
            </text>
        </g><!--class Captain-->
        <g class="entity" data-entity="Captain" data-source-line="18" data-uid="ent0006" id="entity_Captain">
            <rect fill="#F1F1F1" height="105.2038" rx="2.5" ry="2.5" style="stroke:#181818;stroke-width:0.5;"
                  width="248.4171" x="22" y="84.6699"/>
            <ellipse cx="116.7167" cy="100.6699" fill="#ADD1B2" rx="11" ry="11" style="stroke:#181818;stroke-width:1;"/>
            <path d="M116.1854,107.5918 Q114.4354,107.5918 113.2948,106.8574 Q112.1698,106.1074 111.6073,104.7636 Q111.0604,103.4043 111.0604,101.6074 Q111.0604,99.5761 111.7167,98.123 Q112.3729,96.6699 113.6542,95.8886 Q114.9354,95.1074 116.8104,95.1074 Q117.701,95.1074 118.3729,95.2949 Q119.0448,95.4668 119.7323,95.8105 L118.9198,97.8261 Q118.2948,97.5136 117.7479,97.3886 Q117.2167,97.2636 116.7323,97.2636 Q115.5604,97.2636 114.8573,97.7949 Q114.1542,98.3261 113.8573,99.2793 Q113.5604,100.2324 113.5604,101.498 Q113.5604,103.5136 114.2792,104.4824 Q114.9979,105.4355 116.5917,105.4355 Q117.1854,105.4355 117.8104,105.2793 Q118.4354,105.123 119.2635,104.748 L119.2635,106.9668 Q118.5292,107.2793 117.7323,107.4355 Q116.951,107.5918 116.1854,107.5918 Z "
                  fill="#000000"/>
            <text fill="#000000" font-family="sans-serif" font-size="14" lengthAdjust="spacing" textLength="50.4838"
                  x="137.2167" y="106.1019">Captain
            </text>
            <line style="stroke:#181818;stroke-width:0.5;" x1="23" x2="269.4171" y1="116.6699" y2="116.6699"/>
            <rect fill="none" height="6" style="stroke:#C82930;stroke-width:1;" width="6" x="30" y="128.7039"/>
            <text fill="#000000" font-family="sans-serif" font-size="14" lengthAdjust="spacing" textLength="169.7493"
                  x="42" y="135.6358">rowingBoat_: RowingBoat
            </text>
            <line style="stroke:#181818;stroke-width:0.5;" x1="23" x2="269.4171" y1="143.7378" y2="143.7378"/>
            <ellipse cx="33" cy="158.7718" fill="#84BE84" rx="3" ry="3" style="stroke:#038048;stroke-width:1;"/>
            <text fill="#000000" font-family="sans-serif" font-size="14" lengthAdjust="spacing" textLength="222.4171"
                  x="42" y="162.7038">Captain(rowingBoat: RowingBoat)
            </text>
            <ellipse cx="33" cy="177.8397" fill="#84BE84" rx="3" ry="3" style="stroke:#038048;stroke-width:1;"/>
            <text fill="#000000" font-family="sans-serif" font-size="14" lengthAdjust="spacing" textLength="68.8517"
                  x="42" y="181.7717">row(): void
            </text>
        </g><!--reverse link RowingBoat to FishingBoatAdapter-->
        <g class="link" data-entity-1="RowingBoat" data-entity-2="FishingBoatAdapter" data-source-line="24"
           data-uid="lnk7" id="link_RowingBoat_FishingBoatAdapter">
            <path codeLine="24" d="M146,334.7299 C146,352.6899 146,357.1899 146,376.4899" fill="none"
                  id="RowingBoat-backto-FishingBoatAdapter"
                  style="stroke:#181818;stroke-width:1;stroke-dasharray:7.0,7.0;"/>
            <polygon fill="none" points="146,316.7299,140,334.7299,152,334.7299,146,316.7299"
                     style="stroke:#181818;stroke-width:1;"/>
        </g><!--reverse link FishingBoatAdapter to FishingBoat-->
        <g class="link" data-entity-1="FishingBoatAdapter" data-entity-2="FishingBoat" data-source-line="25"
           data-uid="lnk8" id="link_FishingBoatAdapter_FishingBoat">
            <path codeLine="25" d="M146,474.8599 C146,494.1199 146,504.5799 146,522.5199" fill="none"
                  id="FishingBoatAdapter-backto-FishingBoat" style="stroke:#181818;stroke-width:1;"/>
            <polygon fill="none" points="146,462.8599,142,468.8599,146,474.8599,150,468.8599,146,462.8599"
                     style="stroke:#181818;stroke-width:1;"/>
        </g><!--reverse link Captain to RowingBoat-->
        <g class="link" data-entity-1="Captain" data-entity-2="RowingBoat" data-source-line="26" data-uid="lnk9"
           id="link_Captain_RowingBoat">
            <path codeLine="26" d="M146,201.7499 C146,221.5999 146,231.7099 146,249.3299" fill="none"
                  id="Captain-backto-RowingBoat" style="stroke:#181818;stroke-width:1;"/>
            <polygon fill="none" points="146,189.7499,142,195.7499,146,201.7499,150,195.7499,146,189.7499"
                     style="stroke:#181818;stroke-width:1;"/>
        </g><!--SRC=[VOz12i8m44NtSufPjaXxWE161TVY1ShOH1seIMc2NQXtTmB6Hgbc4-Rp__mtWKDdSAMf3sR07GNvB82bY_4zjGPrZpS0jg8Vuxnt8zlJsb4G7UKj1ZSMfSAhOmqFWBOZxt7B_lpbyyJTNsEYcDaRXUeWdaRbYMdDHgB4DcLVOp6yQLL6NluecDnDReyjsTdBUrtFOCFC9QwgFd0JPTIp_LBm1000]-->
    </g>
</svg>