<?xml version="1.0" encoding="us-ascii" standalone="no"?><svg xmlns="http://www.w3.org/2000/svg" xmlns:xlink="http://www.w3.org/1999/xlink" contentStyleType="text/css" height="538px" preserveAspectRatio="none" style="width:1476px;height:538px;background:#FFFFFF;" version="1.1" viewBox="0 0 1476 538" width="1476px" zoomAndPan="magnify"><defs/><g><!--class Document--><g id="elem_Document"><rect codeLine="1" fill="#F1F1F1" height="113.1875" id="Document" rx="2.5" ry="2.5" style="stroke:#181818;stroke-width:0.5;" width="364" x="695" y="7"/><ellipse cx="836.25" cy="23" fill="#B4A7E5" rx="11" ry="11" style="stroke:#181818;stroke-width:1.0;"/><path d="M832.1719,18.7656 L832.1719,16.6094 L839.5625,16.6094 L839.5625,18.7656 L837.0938,18.7656 L837.0938,26.8438 L839.5625,26.8438 L839.5625,29 L832.1719,29 L832.1719,26.8438 L834.6406,26.8438 L834.6406,18.7656 L832.1719,18.7656 Z " fill="#000000"/><text fill="#000000" font-family="sans-serif" font-size="14" font-style="italic" lengthAdjust="spacing" textLength="73" x="856.75" y="27.8467">Document</text><line style="stroke:#181818;stroke-width:0.5;" x1="696" x2="1058" y1="39" y2="39"/><line style="stroke:#181818;stroke-width:0.5;" x1="696" x2="1058" y1="47" y2="47"/><ellipse cx="706" cy="60.6484" fill="#84BE84" rx="3" ry="3" style="stroke:#038048;stroke-width:1.0;"/><text fill="#000000" font-family="sans-serif" font-size="14" lengthAdjust="spacing" textLength="95" x="715" y="63.9951">~Document()</text><ellipse cx="706" cy="76.9453" fill="#84BE84" rx="3" ry="3" style="stroke:#038048;stroke-width:1.0;"/><text fill="#000000" font-family="sans-serif" font-size="14" lengthAdjust="spacing" textLength="182" x="715" y="80.292">put(key: string, value: any)</text><ellipse cx="706" cy="93.2422" fill="#84BE84" rx="3" ry="3" style="stroke:#038048;stroke-width:1.0;"/><text fill="#000000" font-family="sans-serif" font-size="14" lengthAdjust="spacing" textLength="138" x="715" y="96.5889">get(key: string): any</text><ellipse cx="706" cy="109.5391" fill="#84BE84" rx="3" ry="3" style="stroke:#038048;stroke-width:1.0;"/><text fill="#000000" font-family="sans-serif" font-size="14" lengthAdjust="spacing" textLength="338" x="715" y="112.8857">children(key: string): vector&lt;map&lt;string, any&gt;&gt;</text></g><!--class AbstractDocument--><g id="elem_AbstractDocument"><rect codeLine="8" fill="#F1F1F1" height="210.9688" id="AbstractDocument" rx="2.5" ry="2.5" style="stroke:#181818;stroke-width:0.5;" width="466" x="262" y="180"/><ellipse cx="425.75" cy="196" fill="#ADD1B2" rx="11" ry="11" style="stroke:#181818;stroke-width:1.0;"/><path d="M428.7188,201.6406 Q428.1406,201.9375 427.5,202.0781 Q426.8594,202.2344 426.1563,202.2344 Q423.6563,202.2344 422.3281,200.5938 Q421.0156,198.9375 421.0156,195.8125 Q421.0156,192.6875 422.3281,191.0313 Q423.6563,189.375 426.1563,189.375 Q426.8594,189.375 427.5,189.5313 Q428.1563,189.6875 428.7188,189.9844 L428.7188,192.7031 Q428.0938,192.125 427.5,191.8594 Q426.9063,191.5781 426.2813,191.5781 Q424.9375,191.5781 424.25,192.6563 Q423.5625,193.7188 423.5625,195.8125 Q423.5625,197.9063 424.25,198.9844 Q424.9375,200.0469 426.2813,200.0469 Q426.9063,200.0469 427.5,199.7813 Q428.0938,199.5 428.7188,198.9219 L428.7188,201.6406 Z " fill="#000000"/><text fill="#000000" font-family="sans-serif" font-size="14" lengthAdjust="spacing" textLength="130" x="446.25" y="200.8467">AbstractDocument</text><line style="stroke:#181818;stroke-width:0.5;" x1="263" x2="727" y1="212" y2="212"/><rect fill="none" height="6" style="stroke:#C82930;stroke-width:1.0;" width="6" x="270" y="222.6484"/><text fill="#000000" font-family="sans-serif" font-size="14" lengthAdjust="spacing" textLength="212" x="282" y="228.9951">properties_: map&lt;string, any&gt;</text><line style="stroke:#181818;stroke-width:0.5;" x1="263" x2="727" y1="236.2969" y2="236.2969"/><ellipse cx="273" cy="249.9453" fill="#84BE84" rx="3" ry="3" style="stroke:#038048;stroke-width:1.0;"/><text fill="#000000" font-family="sans-serif" font-size="14" lengthAdjust="spacing" textLength="140" x="282" y="253.292">AbstractDocument()</text><ellipse cx="273" cy="266.2422" fill="#84BE84" rx="3" ry="3" style="stroke:#038048;stroke-width:1.0;"/><text fill="#000000" font-family="sans-serif" font-size="14" lengthAdjust="spacing" textLength="345" x="282" y="269.5889">AbstractDocument(properties: map&lt;string, any&gt;)</text><ellipse cx="273" cy="282.5391" fill="#84BE84" rx="3" ry="3" style="stroke:#038048;stroke-width:1.0;"/><text fill="#000000" font-family="sans-serif" font-size="14" lengthAdjust="spacing" textLength="316" x="282" y="285.8857">AbstractDocument(other: AbstractDocument)</text><ellipse cx="273" cy="298.8359" fill="#84BE84" rx="3" ry="3" style="stroke:#038048;stroke-width:1.0;"/><text fill="#000000" font-family="sans-serif" font-size="14" lengthAdjust="spacing" textLength="344" x="282" y="302.1826">AbstractDocument(other: AbstractDocument &amp;&amp;)</text><ellipse cx="273" cy="315.1328" fill="#84BE84" rx="3" ry="3" style="stroke:#038048;stroke-width:1.0;"/><text fill="#000000" font-family="sans-serif" font-size="14" lengthAdjust="spacing" textLength="412" x="282" y="318.4795">operator=(other: AbstractDocument): AbstractDocument &amp;</text><ellipse cx="273" cy="331.4297" fill="#84BE84" rx="3" ry="3" style="stroke:#038048;stroke-width:1.0;"/><text fill="#000000" font-family="sans-serif" font-size="14" lengthAdjust="spacing" textLength="440" x="282" y="334.7764">operator=(other: AbstractDocument &amp;&amp;): AbstractDocument &amp;</text><ellipse cx="273" cy="347.7266" fill="#84BE84" rx="3" ry="3" style="stroke:#038048;stroke-width:1.0;"/><text fill="#000000" font-family="sans-serif" font-size="14" lengthAdjust="spacing" textLength="182" x="282" y="351.0732">put(key: string, value: any)</text><ellipse cx="273" cy="364.0234" fill="#84BE84" rx="3" ry="3" style="stroke:#038048;stroke-width:1.0;"/><text fill="#000000" font-family="sans-serif" font-size="14" lengthAdjust="spacing" textLength="138" x="282" y="367.3701">get(key: string): any</text><ellipse cx="273" cy="380.3203" fill="#84BE84" rx="3" ry="3" style="stroke:#038048;stroke-width:1.0;"/><text fill="#000000" font-family="sans-serif" font-size="14" lengthAdjust="spacing" textLength="338" x="282" y="383.667">children(key: string): vector&lt;map&lt;string, any&gt;&gt;</text></g><!--class HasModel--><g id="elem_HasModel"><rect codeLine="21" fill="#F1F1F1" height="64.2969" id="HasModel" rx="2.5" ry="2.5" style="stroke:#181818;stroke-width:0.5;" width="228" x="763" y="253.5"/><ellipse cx="838.75" cy="269.5" fill="#ADD1B2" rx="11" ry="11" style="stroke:#181818;stroke-width:1.0;"/><path d="M841.7188,275.1406 Q841.1406,275.4375 840.5,275.5781 Q839.8594,275.7344 839.1563,275.7344 Q836.6563,275.7344 835.3281,274.0938 Q834.0156,272.4375 834.0156,269.3125 Q834.0156,266.1875 835.3281,264.5313 Q836.6563,262.875 839.1563,262.875 Q839.8594,262.875 840.5,263.0313 Q841.1563,263.1875 841.7188,263.4844 L841.7188,266.2031 Q841.0938,265.625 840.5,265.3594 Q839.9063,265.0781 839.2813,265.0781 Q837.9375,265.0781 837.25,266.1563 Q836.5625,267.2188 836.5625,269.3125 Q836.5625,271.4063 837.25,272.4844 Q837.9375,273.5469 839.2813,273.5469 Q839.9063,273.5469 840.5,273.2813 Q841.0938,273 841.7188,272.4219 L841.7188,275.1406 Z " fill="#000000"/><text fill="#000000" font-family="sans-serif" font-size="14" lengthAdjust="spacing" textLength="68" x="859.25" y="274.3467">HasModel</text><line style="stroke:#181818;stroke-width:0.5;" x1="764" x2="990" y1="285.5" y2="285.5"/><line style="stroke:#181818;stroke-width:0.5;" x1="764" x2="990" y1="293.5" y2="293.5"/><ellipse cx="774" cy="307.1484" fill="#84BE84" rx="3" ry="3" style="stroke:#038048;stroke-width:1.0;"/><text fill="#000000" font-family="sans-serif" font-size="14" lengthAdjust="spacing" textLength="202" x="783" y="310.4951">getModel(): optional&lt;string&gt;</text></g><!--class HasPrice--><g id="elem_HasPrice"><rect codeLine="25" fill="#F1F1F1" height="64.2969" id="HasPrice" rx="2.5" ry="2.5" style="stroke:#181818;stroke-width:0.5;" width="211" x="1026.5" y="253.5"/><ellipse cx="1097.75" cy="269.5" fill="#ADD1B2" rx="11" ry="11" style="stroke:#181818;stroke-width:1.0;"/><path d="M1100.7188,275.1406 Q1100.1406,275.4375 1099.5,275.5781 Q1098.8594,275.7344 1098.1563,275.7344 Q1095.6563,275.7344 1094.3281,274.0938 Q1093.0156,272.4375 1093.0156,269.3125 Q1093.0156,266.1875 1094.3281,264.5313 Q1095.6563,262.875 1098.1563,262.875 Q1098.8594,262.875 1099.5,263.0313 Q1100.1563,263.1875 1100.7188,263.4844 L1100.7188,266.2031 Q1100.0938,265.625 1099.5,265.3594 Q1098.9063,265.0781 1098.2813,265.0781 Q1096.9375,265.0781 1096.25,266.1563 Q1095.5625,267.2188 1095.5625,269.3125 Q1095.5625,271.4063 1096.25,272.4844 Q1096.9375,273.5469 1098.2813,273.5469 Q1098.9063,273.5469 1099.5,273.2813 Q1100.0938,273 1100.7188,272.4219 L1100.7188,275.1406 Z " fill="#000000"/><text fill="#000000" font-family="sans-serif" font-size="14" lengthAdjust="spacing" textLength="60" x="1118.25" y="274.3467">HasPrice</text><line style="stroke:#181818;stroke-width:0.5;" x1="1027.5" x2="1236.5" y1="285.5" y2="285.5"/><line style="stroke:#181818;stroke-width:0.5;" x1="1027.5" x2="1236.5" y1="293.5" y2="293.5"/><ellipse cx="1037.5" cy="307.1484" fill="#84BE84" rx="3" ry="3" style="stroke:#038048;stroke-width:1.0;"/><text fill="#000000" font-family="sans-serif" font-size="14" lengthAdjust="spacing" textLength="185" x="1046.5" y="310.4951">getPrice(): optional&lt;long&gt;</text></g><!--class HasType--><g id="elem_HasType"><rect codeLine="29" fill="#F1F1F1" height="64.2969" id="HasType" rx="2.5" ry="2.5" style="stroke:#181818;stroke-width:0.5;" width="220" x="7" y="253.5"/><ellipse cx="82.75" cy="269.5" fill="#ADD1B2" rx="11" ry="11" style="stroke:#181818;stroke-width:1.0;"/><path d="M85.7188,275.1406 Q85.1406,275.4375 84.5,275.5781 Q83.8594,275.7344 83.1563,275.7344 Q80.6563,275.7344 79.3281,274.0938 Q78.0156,272.4375 78.0156,269.3125 Q78.0156,266.1875 79.3281,264.5313 Q80.6563,262.875 83.1563,262.875 Q83.8594,262.875 84.5,263.0313 Q85.1563,263.1875 85.7188,263.4844 L85.7188,266.2031 Q85.0938,265.625 84.5,265.3594 Q83.9063,265.0781 83.2813,265.0781 Q81.9375,265.0781 81.25,266.1563 Q80.5625,267.2188 80.5625,269.3125 Q80.5625,271.4063 81.25,272.4844 Q81.9375,273.5469 83.2813,273.5469 Q83.9063,273.5469 84.5,273.2813 Q85.0938,273 85.7188,272.4219 L85.7188,275.1406 Z " fill="#000000"/><text fill="#000000" font-family="sans-serif" font-size="14" lengthAdjust="spacing" textLength="60" x="103.25" y="274.3467">HasType</text><line style="stroke:#181818;stroke-width:0.5;" x1="8" x2="226" y1="285.5" y2="285.5"/><line style="stroke:#181818;stroke-width:0.5;" x1="8" x2="226" y1="293.5" y2="293.5"/><ellipse cx="18" cy="307.1484" fill="#84BE84" rx="3" ry="3" style="stroke:#038048;stroke-width:1.0;"/><text fill="#000000" font-family="sans-serif" font-size="14" lengthAdjust="spacing" textLength="194" x="27" y="310.4951">getType(): optional&lt;string&gt;</text></g><!--class HasParts--><g id="elem_HasParts"><rect codeLine="33" fill="#F1F1F1" height="64.2969" id="HasParts" rx="2.5" ry="2.5" style="stroke:#181818;stroke-width:0.5;" width="197" x="1272.5" y="253.5"/><ellipse cx="1336.25" cy="269.5" fill="#ADD1B2" rx="11" ry="11" style="stroke:#181818;stroke-width:1.0;"/><path d="M1339.2188,275.1406 Q1338.6406,275.4375 1338,275.5781 Q1337.3594,275.7344 1336.6563,275.7344 Q1334.1563,275.7344 1332.8281,274.0938 Q1331.5156,272.4375 1331.5156,269.3125 Q1331.5156,266.1875 1332.8281,264.5313 Q1334.1563,262.875 1336.6563,262.875 Q1337.3594,262.875 1338,263.0313 Q1338.6563,263.1875 1339.2188,263.4844 L1339.2188,266.2031 Q1338.5938,265.625 1338,265.3594 Q1337.4063,265.0781 1336.7813,265.0781 Q1335.4375,265.0781 1334.75,266.1563 Q1334.0625,267.2188 1334.0625,269.3125 Q1334.0625,271.4063 1334.75,272.4844 Q1335.4375,273.5469 1336.7813,273.5469 Q1337.4063,273.5469 1338,273.2813 Q1338.5938,273 1339.2188,272.4219 L1339.2188,275.1406 Z " fill="#000000"/><text fill="#000000" font-family="sans-serif" font-size="14" lengthAdjust="spacing" textLength="61" x="1356.75" y="274.3467">HasParts</text><line style="stroke:#181818;stroke-width:0.5;" x1="1273.5" x2="1468.5" y1="285.5" y2="285.5"/><line style="stroke:#181818;stroke-width:0.5;" x1="1273.5" x2="1468.5" y1="293.5" y2="293.5"/><ellipse cx="1283.5" cy="307.1484" fill="#84BE84" rx="3" ry="3" style="stroke:#038048;stroke-width:1.0;"/><text fill="#000000" font-family="sans-serif" font-size="14" lengthAdjust="spacing" textLength="171" x="1292.5" y="310.4951">getParts(): vector&lt;Part&gt;</text></g><!--class Part--><g id="elem_Part"><rect codeLine="37" fill="#F1F1F1" height="80.5938" id="Part" rx="2.5" ry="2.5" style="stroke:#181818;stroke-width:0.5;" width="296" x="501" y="451"/><ellipse cx="631.25" cy="467" fill="#ADD1B2" rx="11" ry="11" style="stroke:#181818;stroke-width:1.0;"/><path d="M634.2188,472.6406 Q633.6406,472.9375 633,473.0781 Q632.3594,473.2344 631.6563,473.2344 Q629.1563,473.2344 627.8281,471.5938 Q626.5156,469.9375 626.5156,466.8125 Q626.5156,463.6875 627.8281,462.0313 Q629.1563,460.375 631.6563,460.375 Q632.3594,460.375 633,460.5313 Q633.6563,460.6875 634.2188,460.9844 L634.2188,463.7031 Q633.5938,463.125 633,462.8594 Q632.4063,462.5781 631.7813,462.5781 Q630.4375,462.5781 629.75,463.6563 Q629.0625,464.7188 629.0625,466.8125 Q629.0625,468.9063 629.75,469.9844 Q630.4375,471.0469 631.7813,471.0469 Q632.4063,471.0469 633,470.7813 Q633.5938,470.5 634.2188,469.9219 L634.2188,472.6406 Z " fill="#000000"/><text fill="#000000" font-family="sans-serif" font-size="14" lengthAdjust="spacing" textLength="27" x="651.75" y="471.8467">Part</text><line style="stroke:#181818;stroke-width:0.5;" x1="502" x2="796" y1="483" y2="483"/><line style="stroke:#181818;stroke-width:0.5;" x1="502" x2="796" y1="491" y2="491"/><ellipse cx="512" cy="504.6484" fill="#84BE84" rx="3" ry="3" style="stroke:#038048;stroke-width:1.0;"/><text fill="#000000" font-family="sans-serif" font-size="14" lengthAdjust="spacing" textLength="242" x="521" y="507.9951">Part(properties: map&lt;string, any&gt;)</text><ellipse cx="512" cy="520.9453" fill="#84BE84" rx="3" ry="3" style="stroke:#038048;stroke-width:1.0;"/><text fill="#000000" font-family="sans-serif" font-size="14" lengthAdjust="spacing" textLength="270" x="521" y="524.292">Part(properties: map&lt;string, any&gt; &amp;&amp;)</text></g><!--class Car--><g id="elem_Car"><rect codeLine="42" fill="#F1F1F1" height="80.5938" id="Car" rx="2.5" ry="2.5" style="stroke:#181818;stroke-width:0.5;" width="292" x="858" y="451"/><ellipse cx="988.25" cy="467" fill="#ADD1B2" rx="11" ry="11" style="stroke:#181818;stroke-width:1.0;"/><path d="M991.2188,472.6406 Q990.6406,472.9375 990,473.0781 Q989.3594,473.2344 988.6563,473.2344 Q986.1563,473.2344 984.8281,471.5938 Q983.5156,469.9375 983.5156,466.8125 Q983.5156,463.6875 984.8281,462.0313 Q986.1563,460.375 988.6563,460.375 Q989.3594,460.375 990,460.5313 Q990.6563,460.6875 991.2188,460.9844 L991.2188,463.7031 Q990.5938,463.125 990,462.8594 Q989.4063,462.5781 988.7813,462.5781 Q987.4375,462.5781 986.75,463.6563 Q986.0625,464.7188 986.0625,466.8125 Q986.0625,468.9063 986.75,469.9844 Q987.4375,471.0469 988.7813,471.0469 Q989.4063,471.0469 990,470.7813 Q990.5938,470.5 991.2188,469.9219 L991.2188,472.6406 Z " fill="#000000"/><text fill="#000000" font-family="sans-serif" font-size="14" lengthAdjust="spacing" textLength="23" x="1008.75" y="471.8467">Car</text><line style="stroke:#181818;stroke-width:0.5;" x1="859" x2="1149" y1="483" y2="483"/><line style="stroke:#181818;stroke-width:0.5;" x1="859" x2="1149" y1="491" y2="491"/><ellipse cx="869" cy="504.6484" fill="#84BE84" rx="3" ry="3" style="stroke:#038048;stroke-width:1.0;"/><text fill="#000000" font-family="sans-serif" font-size="14" lengthAdjust="spacing" textLength="238" x="878" y="507.9951">Car(properties: map&lt;string, any&gt;)</text><ellipse cx="869" cy="520.9453" fill="#84BE84" rx="3" ry="3" style="stroke:#038048;stroke-width:1.0;"/><text fill="#000000" font-family="sans-serif" font-size="14" lengthAdjust="spacing" textLength="266" x="878" y="524.292">Car(properties: map&lt;string, any&gt; &amp;&amp;)</text></g><!--reverse link Document to AbstractDocument--><g id="link_Document_AbstractDocument"><path codeLine="47" d="M765.0102,129.0002 C733.2902,147.2602 712.51,159.23 676.59,179.92 " fill="none" id="Document-backto-AbstractDocument" style="stroke:#181818;stroke-width:1.0;"/><polygon fill="none" points="780.61,120.02,762.0167,123.8003,768.0036,134.2002,780.61,120.02" style="stroke:#181818;stroke-width:1.0;"/></g><!--reverse link Document to HasModel--><g id="link_Document_HasModel"><path codeLine="48" d="M877,138.02 C877,180.28 877,218.89 877,253.48 " fill="none" id="Document-backto-HasModel" style="stroke:#181818;stroke-width:1.0;"/><polygon fill="none" points="877,120.02,871,138.02,883,138.02,877,120.02" style="stroke:#181818;stroke-width:1.0;"/></g><!--reverse link Document to HasPrice--><g id="link_Document_HasPrice"><path codeLine="49" d="M954.9784,131.7786 C1003.9584,174.0386 1055.95,218.89 1096.04,253.48 " fill="none" id="Document-backto-HasPrice" style="stroke:#181818;stroke-width:1.0;"/><polygon fill="none" points="941.35,120.02,951.0589,136.3215,958.898,127.2358,941.35,120.02" style="stroke:#181818;stroke-width:1.0;"/></g><!--reverse link Document to HasType--><g id="link_Document_HasType"><path codeLine="50" d="M676.7982,75.296 C546.4482,87.486 387.52,114.17 245,180 C206.72,197.68 170.19,229.52 146.03,253.42 " fill="none" id="Document-backto-HasType" style="stroke:#181818;stroke-width:1.0;"/><polygon fill="none" points="694.72,73.62,676.2395,69.3221,677.3569,81.2699,694.72,73.62" style="stroke:#181818;stroke-width:1.0;"/></g><!--reverse link Document to HasParts--><g id="link_Document_HasParts"><path codeLine="51" d="M1076.3979,107.6872 C1140.8079,125.6572 1194.83,145.95 1255,180 C1288.97,199.22 1321.43,229.88 1343.33,253.03 " fill="none" id="Document-backto-HasParts" style="stroke:#181818;stroke-width:1.0;"/><polygon fill="none" points="1059.06,102.85,1074.7855,113.4665,1078.0103,101.9079,1059.06,102.85" style="stroke:#181818;stroke-width:1.0;"/></g><!--reverse link AbstractDocument to Car--><g id="link_AbstractDocument_Car"><path codeLine="52" d="M744.7496,390.5222 C750.7896,392.9622 740.09,388.63 746,391 C796.35,411.19 852.52,432.94 899.56,450.94 " fill="none" id="AbstractDocument-backto-Car" style="stroke:#181818;stroke-width:1.0;"/><polygon fill="none" points="728.06,383.78,742.5022,396.0854,746.997,384.959,728.06,383.78" style="stroke:#181818;stroke-width:1.0;"/></g><!--reverse link AbstractDocument to Part--><g id="link_AbstractDocument_Part"><path codeLine="53" d="M584.8741,405.5568 C600.9741,426.8868 606.11,433.69 619.16,450.97 " fill="none" id="AbstractDocument-backto-Part" style="stroke:#181818;stroke-width:1.0;"/><polygon fill="none" points="574.03,391.19,580.0852,409.1715,589.6631,401.9421,574.03,391.19" style="stroke:#181818;stroke-width:1.0;"/></g><!--reverse link HasModel to Car--><g id="link_HasModel_Car"><path codeLine="54" d="M906.0823,333.2112 C928.3423,368.9712 955.23,412.16 979.4,450.99 " fill="none" id="HasModel-backto-Car" style="stroke:#181818;stroke-width:1.0;"/><polygon fill="none" points="896.57,317.93,900.9886,336.382,911.1761,330.0405,896.57,317.93" style="stroke:#181818;stroke-width:1.0;"/></g><!--reverse link HasPrice to Car--><g id="link_HasPrice_Car"><path codeLine="55" d="M1102.7124,333.1767 C1080.2724,368.9367 1053.15,412.16 1028.79,450.99 " fill="none" id="HasPrice-backto-Car" style="stroke:#181818;stroke-width:1.0;"/><polygon fill="none" points="1112.28,317.93,1097.6302,329.9875,1107.7947,336.3659,1112.28,317.93" style="stroke:#181818;stroke-width:1.0;"/></g><!--reverse link HasParts to Car--><g id="link_HasParts_Car"><path codeLine="56" d="M1329.8321,330.5459 C1307.7021,353.2359 1287.94,370.56 1255,391 C1216.26,415.04 1170.74,435.17 1129.17,450.9 " fill="none" id="HasParts-backto-Car" style="stroke:#181818;stroke-width:1.0;"/><polygon fill="none" points="1342.4,317.66,1325.5368,326.3566,1334.1274,334.7352,1342.4,317.66" style="stroke:#181818;stroke-width:1.0;"/></g><!--reverse link HasModel to Part--><g id="link_HasModel_Part"><path codeLine="57" d="M828.4552,329.9318 C788.4852,365.6918 736.55,412.16 693.16,450.99 " fill="none" id="HasModel-backto-Part" style="stroke:#181818;stroke-width:1.0;"/><polygon fill="none" points="841.87,317.93,824.4546,325.4602,832.4558,334.4034,841.87,317.93" style="stroke:#181818;stroke-width:1.0;"/></g><!--reverse link HasPrice to Part--><g id="link_HasPrice_Part"><path codeLine="58" d="M1090.1966,330.4025 C1066.8666,353.7125 1044.91,371.99 1009,391 C971.68,410.76 879.14,436.17 797.24,456.37 " fill="none" id="HasPrice-backto-Part" style="stroke:#181818;stroke-width:1.0;"/><polygon fill="none" points="1102.93,317.68,1085.9558,326.158,1094.4374,334.6469,1102.93,317.68" style="stroke:#181818;stroke-width:1.0;"/></g><!--reverse link HasType to Part--><g id="link_HasType_Part"><path codeLine="59" d="M160.0348,330.1769 C184.3648,353.6469 207.66,372.35 245,391 C324.98,430.93 422.04,455.51 500.97,470.24 " fill="none" id="HasType-backto-Part" style="stroke:#181818;stroke-width:1.0;"/><polygon fill="none" points="147.08,317.68,155.8692,334.4952,164.2005,325.8586,147.08,317.68" style="stroke:#181818;stroke-width:1.0;"/></g><!--SRC=[nPA_RiCW4CPtFmLJvAZr2rXkfAeTkbJgqBsYX2Qe113WI5R_F7i16umXbjqfddpVtU_kW8ymZUK7H1WySjIUCDFWgm3ck_drGhdj1T7gyXDtDL1Q4dQu1MT8Mrm3oBgXue0d5LkNwrFeIEXUOfRapnXfBfiJ58tlQf3ThlWf2aIXKk3-tIGWqibwbP1SOAa9LcyrIFb-PehwWsJws2jlDSTmVSIopjRxPpdOR0R2RW3DNTpDThv4hsJjc7dyEW_x1DKptsFg_MPckBWqD1UQS0Rfm4wf5qcCNKVAnHEAyfHvxKICs71v3fHQnNDiN8vdit54sD1Ns_yrhbgiS_u88nwWz1FCxve1IsM-Vx14yrrLcL6Ij7-vN7PFaSlskYyKs_iiCbEwjDbx9cEf8dWd50TVJ1JtWh4IKRvHX7d9kIKeVm00]--></g></svg>