<?xml version="1.0" encoding="UTF-8" standalone="no"?><svg xmlns="http://www.w3.org/2000/svg" xmlns:xlink="http://www.w3.org/1999/xlink" contentScriptType="application/ecmascript" contentStyleType="text/css" height="391px" preserveAspectRatio="none" style="width:476px;height:391px;" version="1.1" viewBox="0 0 476 391" width="476px" zoomAndPan="magnify"><defs><filter height="300%" id="fv7t7jka6xrz0" width="300%" x="-1" y="-1"><feGaussianBlur result="blurOut" stdDeviation="2.0"/><feColorMatrix in="blurOut" result="blurOut2" type="matrix" values="0 0 0 0 0 0 0 0 0 0 0 0 0 0 0 0 0 0 .4 0"/><feOffset dx="4.0" dy="4.0" in="blurOut2" result="blurOut3"/><feBlend in="SourceGraphic" in2="blurOut3" mode="normal"/></filter></defs><g><!--MD5=[59b530d44ae785dc18db921986a9c15c]
class Document--><rect fill="#FEFECE" filter="url(#fv7t7jka6xrz0)" height="48" id="Document" style="stroke: #A80036; stroke-width: 1.5;" width="96" x="186.5" y="8"/><ellipse cx="201.5" cy="24" fill="#ADD1B2" rx="11" ry="11" style="stroke: #A80036; stroke-width: 1.0;"/><path d="M204.4688,29.6406 Q203.8906,29.9375 203.25,30.0781 Q202.6094,30.2344 201.9063,30.2344 Q199.4063,30.2344 198.0781,28.5938 Q196.7656,26.9375 196.7656,23.8125 Q196.7656,20.6875 198.0781,19.0313 Q199.4063,17.375 201.9063,17.375 Q202.6094,17.375 203.25,17.5313 Q203.9063,17.6875 204.4688,17.9844 L204.4688,20.7031 Q203.8438,20.125 203.25,19.8594 Q202.6563,19.5781 202.0313,19.5781 Q200.6875,19.5781 200,20.6563 Q199.3125,21.7188 199.3125,23.8125 Q199.3125,25.9063 200,26.9844 Q200.6875,28.0469 202.0313,28.0469 Q202.6563,28.0469 203.25,27.7813 Q203.8438,27.5 204.4688,26.9219 L204.4688,29.6406 Z "/><text fill="#000000" font-family="sans-serif" font-size="12" lengthAdjust="spacingAndGlyphs" textLength="64" x="215.5" y="28.1543">Document</text><line style="stroke: #A80036; stroke-width: 1.5;" x1="187.5" x2="281.5" y1="40" y2="40"/><line style="stroke: #A80036; stroke-width: 1.5;" x1="187.5" x2="281.5" y1="48" y2="48"/><!--MD5=[fbe4dece59b9462d0b4c157b133fa3a4]
class AbstractDocument--><rect fill="#FEFECE" filter="url(#fv7t7jka6xrz0)" height="48" id="AbstractDocument" style="stroke: #A80036; stroke-width: 1.5;" width="149" x="160" y="116"/><ellipse cx="175" cy="132" fill="#ADD1B2" rx="11" ry="11" style="stroke: #A80036; stroke-width: 1.0;"/><path d="M177.9688,137.6406 Q177.3906,137.9375 176.75,138.0781 Q176.1094,138.2344 175.4063,138.2344 Q172.9063,138.2344 171.5781,136.5938 Q170.2656,134.9375 170.2656,131.8125 Q170.2656,128.6875 171.5781,127.0313 Q172.9063,125.375 175.4063,125.375 Q176.1094,125.375 176.75,125.5313 Q177.4063,125.6875 177.9688,125.9844 L177.9688,128.7031 Q177.3438,128.125 176.75,127.8594 Q176.1563,127.5781 175.5313,127.5781 Q174.1875,127.5781 173.5,128.6563 Q172.8125,129.7188 172.8125,131.8125 Q172.8125,133.9063 173.5,134.9844 Q174.1875,136.0469 175.5313,136.0469 Q176.1563,136.0469 176.75,135.7813 Q177.3438,135.5 177.9688,134.9219 L177.9688,137.6406 Z "/><text fill="#000000" font-family="sans-serif" font-size="12" lengthAdjust="spacingAndGlyphs" textLength="117" x="189" y="136.1543">AbstractDocument</text><line style="stroke: #A80036; stroke-width: 1.5;" x1="161" x2="308" y1="148" y2="148"/><line style="stroke: #A80036; stroke-width: 1.5;" x1="161" x2="308" y1="156" y2="156"/><!--MD5=[1c852d3739cce7152f3beb30379b4a59]
class HasModel--><rect fill="#FEFECE" filter="url(#fv7t7jka6xrz0)" height="48" id="HasModel" style="stroke: #A80036; stroke-width: 1.5;" width="93" x="126" y="224"/><ellipse cx="141" cy="240" fill="#ADD1B2" rx="11" ry="11" style="stroke: #A80036; stroke-width: 1.0;"/><path d="M143.9688,245.6406 Q143.3906,245.9375 142.75,246.0781 Q142.1094,246.2344 141.4063,246.2344 Q138.9063,246.2344 137.5781,244.5938 Q136.2656,242.9375 136.2656,239.8125 Q136.2656,236.6875 137.5781,235.0313 Q138.9063,233.375 141.4063,233.375 Q142.1094,233.375 142.75,233.5313 Q143.4063,233.6875 143.9688,233.9844 L143.9688,236.7031 Q143.3438,236.125 142.75,235.8594 Q142.1563,235.5781 141.5313,235.5781 Q140.1875,235.5781 139.5,236.6563 Q138.8125,237.7188 138.8125,239.8125 Q138.8125,241.9063 139.5,242.9844 Q140.1875,244.0469 141.5313,244.0469 Q142.1563,244.0469 142.75,243.7813 Q143.3438,243.5 143.9688,242.9219 L143.9688,245.6406 Z "/><text fill="#000000" font-family="sans-serif" font-size="12" lengthAdjust="spacingAndGlyphs" textLength="61" x="155" y="244.1543">HasModel</text><line style="stroke: #A80036; stroke-width: 1.5;" x1="127" x2="218" y1="256" y2="256"/><line style="stroke: #A80036; stroke-width: 1.5;" x1="127" x2="218" y1="264" y2="264"/><!--MD5=[caeb576329a3a63b3b9272840b3f50ed]
class HasPrice--><rect fill="#FEFECE" filter="url(#fv7t7jka6xrz0)" height="48" id="HasPrice" style="stroke: #A80036; stroke-width: 1.5;" width="87" x="254" y="224"/><ellipse cx="269" cy="240" fill="#ADD1B2" rx="11" ry="11" style="stroke: #A80036; stroke-width: 1.0;"/><path d="M271.9688,245.6406 Q271.3906,245.9375 270.75,246.0781 Q270.1094,246.2344 269.4063,246.2344 Q266.9063,246.2344 265.5781,244.5938 Q264.2656,242.9375 264.2656,239.8125 Q264.2656,236.6875 265.5781,235.0313 Q266.9063,233.375 269.4063,233.375 Q270.1094,233.375 270.75,233.5313 Q271.4063,233.6875 271.9688,233.9844 L271.9688,236.7031 Q271.3438,236.125 270.75,235.8594 Q270.1563,235.5781 269.5313,235.5781 Q268.1875,235.5781 267.5,236.6563 Q266.8125,237.7188 266.8125,239.8125 Q266.8125,241.9063 267.5,242.9844 Q268.1875,244.0469 269.5313,244.0469 Q270.1563,244.0469 270.75,243.7813 Q271.3438,243.5 271.9688,242.9219 L271.9688,245.6406 Z "/><text fill="#000000" font-family="sans-serif" font-size="12" lengthAdjust="spacingAndGlyphs" textLength="55" x="283" y="244.1543">HasPrice</text><line style="stroke: #A80036; stroke-width: 1.5;" x1="255" x2="340" y1="256" y2="256"/><line style="stroke: #A80036; stroke-width: 1.5;" x1="255" x2="340" y1="264" y2="264"/><!--MD5=[a5f9e648e218c7218695ed71da5fd506]
class HasType--><rect fill="#FEFECE" filter="url(#fv7t7jka6xrz0)" height="48" id="HasType" style="stroke: #A80036; stroke-width: 1.5;" width="85" x="6" y="224"/><ellipse cx="21" cy="240" fill="#ADD1B2" rx="11" ry="11" style="stroke: #A80036; stroke-width: 1.0;"/><path d="M23.9688,245.6406 Q23.3906,245.9375 22.75,246.0781 Q22.1094,246.2344 21.4063,246.2344 Q18.9063,246.2344 17.5781,244.5938 Q16.2656,242.9375 16.2656,239.8125 Q16.2656,236.6875 17.5781,235.0313 Q18.9063,233.375 21.4063,233.375 Q22.1094,233.375 22.75,233.5313 Q23.4063,233.6875 23.9688,233.9844 L23.9688,236.7031 Q23.3438,236.125 22.75,235.8594 Q22.1563,235.5781 21.5313,235.5781 Q20.1875,235.5781 19.5,236.6563 Q18.8125,237.7188 18.8125,239.8125 Q18.8125,241.9063 19.5,242.9844 Q20.1875,244.0469 21.5313,244.0469 Q22.1563,244.0469 22.75,243.7813 Q23.3438,243.5 23.9688,242.9219 L23.9688,245.6406 Z "/><text fill="#000000" font-family="sans-serif" font-size="12" lengthAdjust="spacingAndGlyphs" textLength="53" x="35" y="244.1543">HasType</text><line style="stroke: #A80036; stroke-width: 1.5;" x1="7" x2="90" y1="256" y2="256"/><line style="stroke: #A80036; stroke-width: 1.5;" x1="7" x2="90" y1="264" y2="264"/><!--MD5=[0ec4a681559e45890b54008401aec807]
class HasParts--><rect fill="#FEFECE" filter="url(#fv7t7jka6xrz0)" height="48" id="HasParts" style="stroke: #A80036; stroke-width: 1.5;" width="89" x="376" y="224"/><ellipse cx="391" cy="240" fill="#ADD1B2" rx="11" ry="11" style="stroke: #A80036; stroke-width: 1.0;"/><path d="M393.9688,245.6406 Q393.3906,245.9375 392.75,246.0781 Q392.1094,246.2344 391.4063,246.2344 Q388.9063,246.2344 387.5781,244.5938 Q386.2656,242.9375 386.2656,239.8125 Q386.2656,236.6875 387.5781,235.0313 Q388.9063,233.375 391.4063,233.375 Q392.1094,233.375 392.75,233.5313 Q393.4063,233.6875 393.9688,233.9844 L393.9688,236.7031 Q393.3438,236.125 392.75,235.8594 Q392.1563,235.5781 391.5313,235.5781 Q390.1875,235.5781 389.5,236.6563 Q388.8125,237.7188 388.8125,239.8125 Q388.8125,241.9063 389.5,242.9844 Q390.1875,244.0469 391.5313,244.0469 Q392.1563,244.0469 392.75,243.7813 Q393.3438,243.5 393.9688,242.9219 L393.9688,245.6406 Z "/><text fill="#000000" font-family="sans-serif" font-size="12" lengthAdjust="spacingAndGlyphs" textLength="57" x="405" y="244.1543">HasParts</text><line style="stroke: #A80036; stroke-width: 1.5;" x1="377" x2="464" y1="256" y2="256"/><line style="stroke: #A80036; stroke-width: 1.5;" x1="377" x2="464" y1="264" y2="264"/><!--MD5=[6c11516a5600b02d02bec5551b645149]
class Part--><rect fill="#FEFECE" filter="url(#fv7t7jka6xrz0)" height="48" id="Part" style="stroke: #A80036; stroke-width: 1.5;" width="58" x="143.5" y="332"/><ellipse cx="158.5" cy="348" fill="#ADD1B2" rx="11" ry="11" style="stroke: #A80036; stroke-width: 1.0;"/><path d="M161.4688,353.6406 Q160.8906,353.9375 160.25,354.0781 Q159.6094,354.2344 158.9063,354.2344 Q156.4063,354.2344 155.0781,352.5938 Q153.7656,350.9375 153.7656,347.8125 Q153.7656,344.6875 155.0781,343.0313 Q156.4063,341.375 158.9063,341.375 Q159.6094,341.375 160.25,341.5313 Q160.9063,341.6875 161.4688,341.9844 L161.4688,344.7031 Q160.8438,344.125 160.25,343.8594 Q159.6563,343.5781 159.0313,343.5781 Q157.6875,343.5781 157,344.6563 Q156.3125,345.7188 156.3125,347.8125 Q156.3125,349.9063 157,350.9844 Q157.6875,352.0469 159.0313,352.0469 Q159.6563,352.0469 160.25,351.7813 Q160.8438,351.5 161.4688,350.9219 L161.4688,353.6406 Z "/><text fill="#000000" font-family="sans-serif" font-size="12" lengthAdjust="spacingAndGlyphs" textLength="26" x="172.5" y="352.1543">Part</text><line style="stroke: #A80036; stroke-width: 1.5;" x1="144.5" x2="200.5" y1="364" y2="364"/><line style="stroke: #A80036; stroke-width: 1.5;" x1="144.5" x2="200.5" y1="372" y2="372"/><!--MD5=[3f0ef310aaa84a542276992c5216544d]
class Car--><rect fill="#FEFECE" filter="url(#fv7t7jka6xrz0)" height="48" id="Car" style="stroke: #A80036; stroke-width: 1.5;" width="53" x="271" y="332"/><ellipse cx="286" cy="348" fill="#ADD1B2" rx="11" ry="11" style="stroke: #A80036; stroke-width: 1.0;"/><path d="M288.9688,353.6406 Q288.3906,353.9375 287.75,354.0781 Q287.1094,354.2344 286.4063,354.2344 Q283.9063,354.2344 282.5781,352.5938 Q281.2656,350.9375 281.2656,347.8125 Q281.2656,344.6875 282.5781,343.0313 Q283.9063,341.375 286.4063,341.375 Q287.1094,341.375 287.75,341.5313 Q288.4063,341.6875 288.9688,341.9844 L288.9688,344.7031 Q288.3438,344.125 287.75,343.8594 Q287.1563,343.5781 286.5313,343.5781 Q285.1875,343.5781 284.5,344.6563 Q283.8125,345.7188 283.8125,347.8125 Q283.8125,349.9063 284.5,350.9844 Q285.1875,352.0469 286.5313,352.0469 Q287.1563,352.0469 287.75,351.7813 Q288.3438,351.5 288.9688,350.9219 L288.9688,353.6406 Z "/><text fill="#000000" font-family="sans-serif" font-size="12" lengthAdjust="spacingAndGlyphs" textLength="21" x="300" y="352.1543">Car</text><line style="stroke: #A80036; stroke-width: 1.5;" x1="272" x2="323" y1="364" y2="364"/><line style="stroke: #A80036; stroke-width: 1.5;" x1="272" x2="323" y1="372" y2="372"/><!--MD5=[32332a93393378ac43d94b9658e99fd1]
reverse link Document to AbstractDocument--><path d="M234.5,76.02 C234.5,89.58 234.5,104.04 234.5,115.68 " fill="none" id="Document&lt;-AbstractDocument" style="stroke: #A80036; stroke-width: 1.0;"/><polygon fill="none" points="227.5,76,234.5,56,241.5,76,227.5,76" style="stroke: #A80036; stroke-width: 1.0;"/><!--MD5=[7d6ecc9b9d0a017053cca9f2c7e60776]
reverse link AbstractDocument to HasModel--><path d="M210.75,181.61 C202.42,195.85 193.35,211.35 186.14,223.68 " fill="none" id="AbstractDocument&lt;-HasModel" style="stroke: #A80036; stroke-width: 1.0;"/><polygon fill="none" points="204.91,177.73,221.05,164,216.99,184.8,204.91,177.73" style="stroke: #A80036; stroke-width: 1.0;"/><!--MD5=[682543424d5eb54772565aa3002ed72e]
reverse link AbstractDocument to HasPrice--><path d="M258.64,181.61 C267.1,195.85 276.31,211.35 283.64,223.68 " fill="none" id="AbstractDocument&lt;-HasPrice" style="stroke: #A80036; stroke-width: 1.0;"/><polygon fill="none" points="252.37,184.77,248.17,164,264.41,177.62,252.37,184.77" style="stroke: #A80036; stroke-width: 1.0;"/><!--MD5=[903108f6a94e7feb195f1948d9136c9a]
reverse link AbstractDocument to HasType--><path d="M176.38,174.12 C148.05,190.27 114.66,209.3 89.1,223.86 " fill="none" id="AbstractDocument&lt;-HasType" style="stroke: #A80036; stroke-width: 1.0;"/><polygon fill="none" points="173.3,167.82,194.14,164,180.23,179.98,173.3,167.82" style="stroke: #A80036; stroke-width: 1.0;"/><!--MD5=[d90fbd4e175fb920f992eeaefc8fe9e7]
reverse link AbstractDocument to HasParts--><path d="M292.62,174.12 C320.95,190.27 354.34,209.3 379.9,223.86 " fill="none" id="AbstractDocument&lt;-HasParts" style="stroke: #A80036; stroke-width: 1.0;"/><polygon fill="none" points="288.77,179.98,274.86,164,295.7,167.82,288.77,179.98" style="stroke: #A80036; stroke-width: 1.0;"/><!--MD5=[085056fa57be1728d4ebba2bd06047aa]
reverse link HasModel to Car--><path d="M215.02,285.06 C233.52,300.74 254.63,318.64 270.86,332.41 " fill="none" id="HasModel&lt;-Car" style="stroke: #A80036; stroke-width: 1.0;"/><polygon fill="none" points="210.35,290.27,199.62,272,219.4,279.6,210.35,290.27" style="stroke: #A80036; stroke-width: 1.0;"/><!--MD5=[7b3ed4c82f0ca250540c62c8b14f32b6]
reverse link HasPrice to Car--><path d="M297.5,292.02 C297.5,305.58 297.5,320.04 297.5,331.68 " fill="none" id="HasPrice&lt;-Car" style="stroke: #A80036; stroke-width: 1.0;"/><polygon fill="none" points="290.5,292,297.5,272,304.5,292,290.5,292" style="stroke: #A80036; stroke-width: 1.0;"/><!--MD5=[aab4fe2dd8e4b9c797770f1af1364edb]
reverse link HasParts to Car--><path d="M378.5,285.2 C360.49,300.71 340,318.37 324.14,332.04 " fill="none" id="HasParts&lt;-Car" style="stroke: #A80036; stroke-width: 1.0;"/><polygon fill="none" points="374.09,279.75,393.81,272,383.23,290.36,374.09,279.75" style="stroke: #A80036; stroke-width: 1.0;"/><!--MD5=[c2310c2d910ddc09f3d773e2abd84cdc]
reverse link HasModel to Part--><path d="M172.5,292.02 C172.5,305.58 172.5,320.04 172.5,331.68 " fill="none" id="HasModel&lt;-Part" style="stroke: #A80036; stroke-width: 1.0;"/><polygon fill="none" points="165.5,292,172.5,272,179.5,292,165.5,292" style="stroke: #A80036; stroke-width: 1.0;"/><!--MD5=[d6b21bf6cdc4329dcd1a2d936fd960a8]
reverse link HasPrice to Part--><path d="M254.92,285.1 C236.76,300.5 216.1,318.03 200,331.68 " fill="none" id="HasPrice&lt;-Part" style="stroke: #A80036; stroke-width: 1.0;"/><polygon fill="none" points="250.6,279.6,270.38,272,259.65,290.27,250.6,279.6" style="stroke: #A80036; stroke-width: 1.0;"/><!--MD5=[d5e77f7b3e5f6c7e4a2af002c54c8a2f]
reverse link HasType to Part--><path d="M90.73,285.1 C108.75,300.5 129.25,318.03 145.22,331.68 " fill="none" id="HasType&lt;-Part" style="stroke: #A80036; stroke-width: 1.0;"/><polygon fill="none" points="86.06,290.32,75.41,272,95.16,279.68,86.06,290.32" style="stroke: #A80036; stroke-width: 1.0;"/><!--MD5=[c9aee909c658c30e57c7bc567869282e]
@startuml
class Document
class AbstractDocument
class HasModel
class HasPrice
class HasType
class HasParts
class Part
class Car

Document <|- - AbstractDocument
AbstractDocument <|- - HasModel
AbstractDocument <|- - HasPrice
AbstractDocument <|- - HasType
AbstractDocument <|- - HasParts
HasModel <|- - Car
HasPrice <|- - Car
HasParts <|- - Car
HasModel <|- - Part
HasPrice <|- - Part
HasType <|- - Part
@enduml

PlantUML version 1.2020.02(Sun Mar 01 10:22:07 UTC 2020)
(GPL source distribution)
Java Runtime: OpenJDK Runtime Environment
JVM: OpenJDK 64-Bit Server VM
Java Version: 21.0.2+13-58
Operating System: Linux
Default Encoding: UTF-8
Language: en
Country: null
--></g></svg>